$MeshFormat
4.1 0 8
$EndMeshFormat
$PhysicalNames
17
2 2 "gnd_layer1_sfs"
2 5 "Q1_pad_left_sfs"
2 7 "Q1_pad_right_sfs"
2 9 "Q2_pad_left_sfs"
2 11 "Q2_pad_right_sfs"
2 13 "bus_center_trace_sfs"
2 14 "Q1_jj_jj"
2 15 "Q2_jj_jj"
2 17 "vacuum_outer"
3 1 "gnd_layer1"
3 3 "substrate_layer3"
3 4 "Q1_pad_left"
3 6 "Q1_pad_right"
3 8 "Q2_pad_left"
3 10 "Q2_pad_right"
3 12 "bus_center_trace"
3 16 "vacuum"
$EndPhysicalNames
$Entities
100 156 74 10
25 -0.001205 -4.5e-05 1e-06 0 
26 -0.001195 -4.5e-05 1e-06 0 
27 -0.001195 4.5e-05 1e-06 0 
28 -0.001205 4.5e-05 1e-06 0 
53 0.001195 -4.5e-05 1e-06 0 
54 0.001205 -4.5e-05 1e-06 0 
55 0.001205 4.5e-05 1e-06 0 
56 0.001195 4.5e-05 1e-06 0 
57 -0.0008599999999999999 6e-06 0 0 
58 -0.0008599999999999999 -6e-06 0 0 
59 -1.230620571091987e-15 5.999999999999999e-06 0 0 
60 1.230621305880066e-15 -5.999999999999999e-06 0 0 
61 0.0008599999999999999 6e-06 0 0 
62 0.0008599999999999999 -6e-06 0 0 
63 -0.0008599999999999999 6e-06 2e-06 0 
64 -0.0008599999999999999 -6e-06 2e-06 0 
65 1.230621305880066e-15 -5.999999999999999e-06 2e-06 0 
66 0.0008599999999999999 -6e-06 2e-06 0 
67 0.0008599999999999999 6e-06 2e-06 0 
68 -1.230620571091987e-15 5.999999999999999e-06 2e-06 0 
69 -0.00153 -4.5e-05 0 0 
70 -0.00129 -4.5e-05 0 0 
71 -0.00129 -4.5e-05 2e-06 0 
72 -0.00153 -4.5e-05 2e-06 0 
73 -0.00153 4.5e-05 0 0 
74 -0.00129 4.5e-05 0 0 
75 -0.00129 4.5e-05 2e-06 0 
76 -0.00153 4.5e-05 2e-06 0 
77 -0.00111 -4.5e-05 0 0 
78 -0.00111 -4.5e-05 2e-06 0 
79 -0.00111 4.5e-05 0 0 
80 -0.00111 4.5e-05 2e-06 0 
81 -0.00087 -4.5e-05 0 0 
82 -0.00087 -4.5e-05 2e-06 0 
83 -0.00087 4.5e-05 0 0 
84 -0.00087 4.5e-05 2e-06 0 
85 0.00087 -4.5e-05 0 0 
86 0.00111 -4.5e-05 0 0 
87 0.00111 -4.5e-05 2e-06 0 
88 0.00087 -4.5e-05 2e-06 0 
89 0.00087 4.5e-05 0 0 
90 0.00111 4.5e-05 0 0 
91 0.00111 4.5e-05 2e-06 0 
92 0.00087 4.5e-05 2e-06 0 
93 0.00129 -4.5e-05 0 0 
94 0.00129 -4.5e-05 2e-06 0 
95 0.00129 4.5e-05 0 0 
96 0.00129 4.5e-05 2e-06 0 
97 0.00153 -4.5e-05 0 0 
98 0.00153 -4.5e-05 2e-06 0 
99 0.00153 4.5e-05 0 0 
100 0.00153 4.5e-05 2e-06 0 
101 -0.001801 -0.000461 0.0008899999999999999 0 
102 -0.001801 -0.000461 -0.00165 0 
103 -0.001801 0.000461 0.0008899999999999999 0 
104 -0.001801 0.000461 -0.00165 0 
105 0.001801 -0.000461 -0.00165 0 
106 0.001801 -0.000461 0.0008899999999999999 0 
107 0.001801 0.000461 0.0008899999999999999 0 
108 0.001801 0.000461 -0.00165 0 
109 -0.0018 -0.00046 0 0 
110 -0.0018 -0.00046 2e-06 0 
111 -0.0018 0.00046 2e-06 0 
112 -0.0018 0.00046 0 0 
113 0.0018 -0.00046 0 0 
114 0.0018 -0.00046 2e-06 0 
115 0.0018 0.00046 2e-06 0 
116 -0.0016 -0.00026 2e-06 0 
117 -0.0007999999999999999 -0.00026 2e-06 0 
118 -0.0007999999999999999 -1.3e-05 2e-06 0 
119 2.666346162740144e-15 -1.3e-05 2e-06 0 
120 0.0007999999999999999 -1.3e-05 2e-06 0 
121 0.0007999999999999999 -0.00026 2e-06 0 
122 0.0016 -0.00026 2e-06 0 
123 0.0016 0.00026 2e-06 0 
124 0.0007999999999999999 0.00026 2e-06 0 
125 0.0007999999999999999 1.3e-05 2e-06 0 
126 -2.666344570699305e-15 1.3e-05 2e-06 0 
127 -0.0007999999999999999 1.3e-05 2e-06 0 
128 -0.0007999999999999999 0.00026 2e-06 0 
129 -0.0016 0.00026 2e-06 0 
130 0.0018 0.00046 0 0 
131 -0.0018 -0.00046 -0.00075 0 
132 -0.0018 0.00046 -0.00075 0 
133 0.0018 -0.00046 -0.00075 0 
134 -0.0016 -0.00026 0 0 
135 -0.0007999999999999999 -0.00026 0 0 
136 -0.0007999999999999999 -1.3e-05 0 0 
137 2.666346162740144e-15 -1.3e-05 0 0 
138 0.0007999999999999999 -1.3e-05 0 0 
139 0.0007999999999999999 -0.00026 0 0 
140 0.0016 -0.00026 0 0 
141 0.0016 0.00026 0 0 
142 0.0007999999999999999 0.00026 0 0 
143 0.0007999999999999999 1.3e-05 0 0 
144 -2.666344570699305e-15 1.3e-05 0 0 
145 -0.0007999999999999999 1.3e-05 0 0 
146 -0.0007999999999999999 0.00026 0 0 
147 -0.0016 0.00026 0 0 
148 0.0018 0.00046 -0.00075 0 
37 -0.0012051 -4.51e-05 9e-07 -0.0011949 -4.489999999999999e-05 1.1e-06 0 2 25 -26 
38 -0.0011951 -4.51e-05 9e-07 -0.0011949 4.51e-05 1.1e-06 0 2 26 -27 
39 -0.0012051 4.489999999999999e-05 9e-07 -0.0011949 4.51e-05 1.1e-06 0 2 27 -28 
40 -0.0012051 -4.51e-05 9e-07 -0.0012049 4.51e-05 1.1e-06 0 2 28 -25 
77 0.0011949 -4.51e-05 9e-07 0.0012051 -4.489999999999999e-05 1.1e-06 0 2 53 -54 
78 0.0012049 -4.51e-05 9e-07 0.0012051 4.51e-05 1.1e-06 0 2 54 -55 
79 0.0011949 4.489999999999999e-05 9e-07 0.0012051 4.51e-05 1.1e-06 0 2 55 -56 
80 0.0011949 -4.51e-05 9e-07 0.0011951 4.51e-05 1.1e-06 0 2 56 -53 
81 -0.0008600999999999998 -6.1e-06 -1e-07 -0.0008598999999999999 6.1e-06 1e-07 0 2 57 -58 
82 -0.0008600999999999998 5.899999999999999e-06 -1e-07 9.999999876943296e-08 6.1e-06 1e-07 0 2 57 -59 
83 -0.0008600999999999998 -6.1e-06 -1e-07 1.000000012305719e-07 -5.899999999999999e-06 1e-07 0 2 58 -60 
84 0.0008598999999999999 -6.1e-06 -1e-07 0.0008600999999999998 6.1e-06 1e-07 0 2 61 -62 
85 -1.000000012306261e-07 5.899999999999999e-06 -1e-07 0.0008600999999999998 6.1e-06 1e-07 0 2 59 -61 
86 -9.999999876937875e-08 -6.1e-06 -1e-07 0.0008600999999999998 -5.899999999999999e-06 1e-07 0 2 60 -62 
87 -0.0008600999999999998 5.9e-06 -1.000000000000001e-07 -0.0008598999999999999 6.1e-06 2.1e-06 0 2 57 -63 
88 -0.0008600999999999998 -6.1e-06 -1.000000000000001e-07 -0.0008598999999999999 -5.9e-06 2.1e-06 0 2 58 -64 
89 -0.0008600999999999998 -6.1e-06 1.9e-06 -0.0008598999999999999 6.1e-06 2.1e-06 0 2 63 -64 
90 -9.999999876937872e-08 -6.099999999999999e-06 -1.000000000000001e-07 1.000000012306213e-07 -5.899999999999999e-06 2.1e-06 0 2 60 -65 
91 -0.0008600999999999998 -6.1e-06 1.9e-06 1.000000012305719e-07 -5.899999999999999e-06 2.1e-06 0 2 64 -65 
92 0.0008598999999999999 -6.1e-06 -1.000000000000001e-07 0.0008600999999999998 -5.9e-06 2.1e-06 0 2 62 -66 
93 -9.999999876937875e-08 -6.1e-06 1.9e-06 0.0008600999999999998 -5.899999999999999e-06 2.1e-06 0 2 65 -66 
94 0.0008598999999999999 5.9e-06 -1.000000000000001e-07 0.0008600999999999998 6.1e-06 2.1e-06 0 2 61 -67 
95 0.0008598999999999999 -6.1e-06 1.9e-06 0.0008600999999999998 6.1e-06 2.1e-06 0 2 67 -66 
96 -1.000000012306206e-07 5.899999999999999e-06 -1.000000000000001e-07 9.999999876937946e-08 6.099999999999999e-06 2.1e-06 0 2 59 -68 
97 -1.000000012306261e-07 5.899999999999999e-06 1.9e-06 0.0008600999999999998 6.1e-06 2.1e-06 0 2 68 -67 
98 -0.0008600999999999998 5.899999999999999e-06 1.9e-06 9.999999876943296e-08 6.1e-06 2.1e-06 0 2 63 -68 
99 -0.0015301 -4.51e-05 -1e-07 -0.0012899 -4.489999999999999e-05 1e-07 0 2 69 -70 
100 -0.0012901 -4.51e-05 -1.000000000000001e-07 -0.0012899 -4.489999999999999e-05 2.1e-06 0 2 70 -71 
101 -0.0015301 -4.51e-05 1.9e-06 -0.0012899 -4.489999999999999e-05 2.1e-06 0 2 72 -71 
102 -0.0015301 -4.51e-05 -1.000000000000001e-07 -0.0015299 -4.489999999999999e-05 2.1e-06 0 2 69 -72 
103 -0.0015301 -4.51e-05 -1e-07 -0.0015299 4.51e-05 1e-07 0 2 73 -69 
104 -0.0015301 4.489999999999999e-05 -1e-07 -0.0012899 4.51e-05 1e-07 0 2 74 -73 
105 -0.0012901 -4.51e-05 -1e-07 -0.0012899 4.51e-05 1e-07 0 2 74 -70 
106 -0.0012901 4.489999999999999e-05 -1.000000000000001e-07 -0.0012899 4.51e-05 2.1e-06 0 2 74 -75 
107 -0.0012901 -4.51e-05 1.9e-06 -0.0012899 4.51e-05 2.1e-06 0 2 75 -71 
108 -0.0015301 -4.51e-05 1.9e-06 -0.0015299 4.51e-05 2.1e-06 0 2 76 -72 
109 -0.0015301 4.489999999999999e-05 1.9e-06 -0.0012899 4.51e-05 2.1e-06 0 2 75 -76 
110 -0.0015301 4.489999999999999e-05 -1.000000000000001e-07 -0.0015299 4.51e-05 2.1e-06 0 2 73 -76 
111 -0.0012901 -4.51e-05 -1e-07 -0.0011099 -4.489999999999999e-05 1e-07 0 2 70 -77 
112 -0.0011101 -4.51e-05 -1.000000000000001e-07 -0.0011099 -4.489999999999999e-05 2.1e-06 0 2 77 -78 
113 -0.0012901 -4.51e-05 1.9e-06 -0.0011099 -4.489999999999999e-05 2.1e-06 0 2 71 -78 
114 -0.0012901 4.489999999999999e-05 -1e-07 -0.0011099 4.51e-05 1e-07 0 2 79 -74 
115 -0.0011101 -4.51e-05 -1e-07 -0.0011099 4.51e-05 1e-07 0 2 77 -79 
116 -0.0011101 4.489999999999999e-05 -1.000000000000001e-07 -0.0011099 4.51e-05 2.1e-06 0 2 79 -80 
117 -0.0011101 -4.51e-05 1.9e-06 -0.0011099 4.51e-05 2.1e-06 0 2 78 -80 
118 -0.0012901 4.489999999999999e-05 1.9e-06 -0.0011099 4.51e-05 2.1e-06 0 2 80 -75 
119 -0.0011101 -4.51e-05 -1e-07 -0.0008699000000000001 -4.489999999999999e-05 1e-07 0 2 77 -81 
120 -0.0008701 -4.51e-05 -1.000000000000001e-07 -0.0008699000000000001 -4.489999999999999e-05 2.1e-06 0 2 81 -82 
121 -0.0011101 -4.51e-05 1.9e-06 -0.0008699000000000001 -4.489999999999999e-05 2.1e-06 0 2 78 -82 
122 -0.0011101 4.489999999999999e-05 -1e-07 -0.0008699000000000001 4.51e-05 1e-07 0 2 83 -79 
123 -0.0008701 -4.51e-05 -1e-07 -0.0008699000000000001 4.51e-05 1e-07 0 2 81 -83 
124 -0.0008701 4.489999999999999e-05 -1.000000000000001e-07 -0.0008699000000000001 4.51e-05 2.1e-06 0 2 83 -84 
125 -0.0008701 -4.51e-05 1.9e-06 -0.0008699000000000001 4.51e-05 2.1e-06 0 2 82 -84 
126 -0.0011101 4.489999999999999e-05 1.9e-06 -0.0008699000000000001 4.51e-05 2.1e-06 0 2 84 -80 
127 0.0008699000000000001 -4.51e-05 -1e-07 0.0011101 -4.489999999999999e-05 1e-07 0 2 85 -86 
128 0.0011099 -4.51e-05 -1.000000000000001e-07 0.0011101 -4.489999999999999e-05 2.1e-06 0 2 86 -87 
129 0.0008699000000000001 -4.51e-05 1.9e-06 0.0011101 -4.489999999999999e-05 2.1e-06 0 2 88 -87 
130 0.0008699000000000001 -4.51e-05 -1.000000000000001e-07 0.0008701 -4.489999999999999e-05 2.1e-06 0 2 85 -88 
131 0.0008699000000000001 -4.51e-05 -1e-07 0.0008701 4.51e-05 1e-07 0 2 89 -85 
132 0.0008699000000000001 4.489999999999999e-05 -1e-07 0.0011101 4.51e-05 1e-07 0 2 90 -89 
133 0.0011099 -4.51e-05 -1e-07 0.0011101 4.51e-05 1e-07 0 2 90 -86 
134 0.0011099 4.489999999999999e-05 -1.000000000000001e-07 0.0011101 4.51e-05 2.1e-06 0 2 90 -91 
135 0.0011099 -4.51e-05 1.9e-06 0.0011101 4.51e-05 2.1e-06 0 2 91 -87 
136 0.0008699000000000001 -4.51e-05 1.9e-06 0.0008701 4.51e-05 2.1e-06 0 2 92 -88 
137 0.0008699000000000001 4.489999999999999e-05 1.9e-06 0.0011101 4.51e-05 2.1e-06 0 2 91 -92 
138 0.0008699000000000001 4.489999999999999e-05 -1.000000000000001e-07 0.0008701 4.51e-05 2.1e-06 0 2 89 -92 
139 0.0011099 -4.51e-05 -1e-07 0.0012901 -4.489999999999999e-05 1e-07 0 2 86 -93 
140 0.0012899 -4.51e-05 -1.000000000000001e-07 0.0012901 -4.489999999999999e-05 2.1e-06 0 2 93 -94 
141 0.0011099 -4.51e-05 1.9e-06 0.0012901 -4.489999999999999e-05 2.1e-06 0 2 87 -94 
142 0.0011099 4.489999999999999e-05 -1e-07 0.0012901 4.51e-05 1e-07 0 2 95 -90 
143 0.0012899 -4.51e-05 -1e-07 0.0012901 4.51e-05 1e-07 0 2 93 -95 
144 0.0012899 4.489999999999999e-05 -1.000000000000001e-07 0.0012901 4.51e-05 2.1e-06 0 2 95 -96 
145 0.0012899 -4.51e-05 1.9e-06 0.0012901 4.51e-05 2.1e-06 0 2 94 -96 
146 0.0011099 4.489999999999999e-05 1.9e-06 0.0012901 4.51e-05 2.1e-06 0 2 96 -91 
147 0.0012899 -4.51e-05 -1e-07 0.0015301 -4.489999999999999e-05 1e-07 0 2 93 -97 
148 0.0015299 -4.51e-05 -1.000000000000001e-07 0.0015301 -4.489999999999999e-05 2.1e-06 0 2 97 -98 
149 0.0012899 -4.51e-05 1.9e-06 0.0015301 -4.489999999999999e-05 2.1e-06 0 2 94 -98 
150 0.0012899 4.489999999999999e-05 -1e-07 0.0015301 4.51e-05 1e-07 0 2 99 -95 
151 0.0015299 -4.51e-05 -1e-07 0.0015301 4.51e-05 1e-07 0 2 97 -99 
152 0.0015299 4.489999999999999e-05 -1.000000000000001e-07 0.0015301 4.51e-05 2.1e-06 0 2 99 -100 
153 0.0015299 -4.51e-05 1.9e-06 0.0015301 4.51e-05 2.1e-06 0 2 98 -100 
154 0.0012899 4.489999999999999e-05 1.9e-06 0.0015301 4.51e-05 2.1e-06 0 2 100 -96 
155 -0.0018011 -0.0004611 -0.0016501 -0.0018009 -0.0004609 0.0008901 0 2 102 -101 
156 -0.0018011 -0.0004611 0.0008899 -0.0018009 0.0004611 0.0008900999999999999 0 2 101 -103 
157 -0.0018011 0.0004609 -0.0016501 -0.0018009 0.0004611 0.0008901 0 2 104 -103 
158 -0.0018011 -0.0004611 -0.0016501 -0.0018009 0.0004611 -0.0016499 0 2 102 -104 
159 -0.0018011 -0.0004611 -0.0016501 0.0018011 -0.0004609 -0.0016499 0 2 102 -105 
160 0.0018009 -0.0004611 -0.0016501 0.0018011 -0.0004609 0.0008901 0 2 105 -106 
161 -0.0018011 -0.0004611 0.0008899 0.0018011 -0.0004609 0.0008900999999999999 0 2 101 -106 
162 -0.0018011 0.0004609 0.0008899 0.0018011 0.0004611 0.0008900999999999999 0 2 103 -107 
163 0.0018009 -0.0004611 0.0008899 0.0018011 0.0004611 0.0008900999999999999 0 2 106 -107 
164 -0.0018011 0.0004609 -0.0016501 0.0018011 0.0004611 -0.0016499 0 2 104 -108 
165 0.0018009 0.0004609 -0.0016501 0.0018011 0.0004611 0.0008901 0 2 108 -107 
166 0.0018009 -0.0004611 -0.0016501 0.0018011 0.0004611 -0.0016499 0 2 105 -108 
167 -0.0018001 -0.0004601 -1.000000000000001e-07 -0.0017999 -0.0004599 2.1e-06 0 2 109 -110 
168 -0.0018001 -0.0004601 1.9e-06 -0.0017999 0.0004601 2.1e-06 0 2 110 -111 
169 -0.0018001 0.0004599 -1.000000000000001e-07 -0.0017999 0.0004601 2.1e-06 0 2 112 -111 
170 -0.0018001 -0.0004601 -1e-07 -0.0017999 0.0004601 1e-07 0 2 109 -112 
171 -0.0018001 -0.0004601 -1e-07 0.0018001 -0.0004599 1e-07 0 2 109 -113 
172 0.0017999 -0.0004601 -1.000000000000001e-07 0.0018001 -0.0004599 2.1e-06 0 2 113 -114 
173 -0.0018001 -0.0004601 1.9e-06 0.0018001 -0.0004599 2.1e-06 0 2 110 -114 
174 -0.0018001 0.0004599 1.9e-06 0.0018001 0.0004601 2.1e-06 0 2 111 -115 
175 0.0017999 -0.0004601 1.9e-06 0.0018001 0.0004601 2.1e-06 0 2 114 -115 
176 -0.0016001 -0.0002601 1.9e-06 -0.0007999 -0.0002599 2.1e-06 0 2 116 -117 
177 -0.0008000999999999999 -0.0002601 1.9e-06 -0.0007999 -1.289999999999999e-05 2.1e-06 0 2 117 -118 
178 -0.0008000999999999999 -1.31e-05 1.9e-06 1.000000026663808e-07 -1.29e-05 2.1e-06 0 2 118 -119 
179 -9.999999733367824e-08 -1.31e-05 1.9e-06 0.0008000999999999999 -1.29e-05 2.1e-06 0 2 119 -120 
180 0.0007999 -0.0002601 1.9e-06 0.0008000999999999999 -1.289999999999999e-05 2.1e-06 0 2 120 -121 
181 0.0007999 -0.0002601 1.9e-06 0.0016001 -0.0002599 2.1e-06 0 2 121 -122 
182 0.0015999 -0.0002601 1.9e-06 0.0016001 0.0002601 2.1e-06 0 2 122 -123 
183 0.0007999 0.0002599 1.9e-06 0.0016001 0.0002601 2.1e-06 0 2 123 -124 
184 0.0007999 1.289999999999999e-05 1.9e-06 0.0008000999999999999 0.0002601 2.1e-06 0 2 124 -125 
185 -1.000000026663266e-07 1.29e-05 1.9e-06 0.0008000999999999999 1.31e-05 2.1e-06 0 2 126 -125 
186 -0.0008000999999999999 1.29e-05 1.9e-06 9.999999733362403e-08 1.31e-05 2.1e-06 0 2 127 -126 
187 -0.0008000999999999999 1.289999999999999e-05 1.9e-06 -0.0007999 0.0002601 2.1e-06 0 2 127 -128 
188 -0.0016001 0.0002599 1.9e-06 -0.0007999 0.0002601 2.1e-06 0 2 128 -129 
189 -0.0016001 -0.0002601 1.9e-06 -0.0015999 0.0002601 2.1e-06 0 2 129 -116 
190 -0.0018001 0.0004599 -1e-07 0.0018001 0.0004601 1e-07 0 2 112 -130 
191 0.0017999 0.0004599 -1.000000000000001e-07 0.0018001 0.0004601 2.1e-06 0 2 130 -115 
192 -0.0018001 -0.0004601 -0.0007501 -0.0017999 -0.0004599 1.000000000000024e-07 0 2 131 -109 
193 -0.0018001 0.0004599 -0.0007501 -0.0017999 0.0004601 1.000000000000024e-07 0 2 132 -112 
194 -0.0018001 -0.0004601 -0.0007501 -0.0017999 0.0004601 -0.0007499000000000001 0 2 131 -132 
195 -0.0018001 -0.0004601 -0.0007501 0.0018001 -0.0004599 -0.0007499000000000001 0 2 131 -133 
196 0.0017999 -0.0004601 -0.0007501 0.0018001 -0.0004599 1.000000000000024e-07 0 2 133 -113 
197 0.0017999 -0.0004601 -1e-07 0.0018001 0.0004601 1e-07 0 2 113 -130 
198 -0.0016001 -0.0002601 -1.000000000000001e-07 -0.0015999 -0.0002599 2.1e-06 0 2 134 -116 
199 -0.0008000999999999999 -0.0002601 -1.000000000000001e-07 -0.0007999 -0.0002599 2.1e-06 0 2 135 -117 
200 -0.0016001 -0.0002601 -1e-07 -0.0007999 -0.0002599 1e-07 0 2 134 -135 
201 -0.0008000999999999999 -0.0002601 -1e-07 -0.0007999 -1.289999999999999e-05 1e-07 0 2 135 -136 
202 -0.0008001499999999999 -1.315e-05 -1.5e-07 -0.00079985 -1.285e-05 2.15e-06 0 2 118 -136 
203 -0.0008000999999999999 -1.31e-05 -1e-07 1.000000026663808e-07 -1.29e-05 1e-07 0 2 136 -137 
204 -9.999999733365386e-08 -1.31e-05 -1.000000000000001e-07 1.000000026663462e-07 -1.29e-05 2.1e-06 0 2 137 -119 
205 -9.999999733367824e-08 -1.31e-05 -1e-07 0.0008000999999999999 -1.29e-05 1e-07 0 2 137 -138 
206 0.00079985 -1.315e-05 -1.5e-07 0.0008001499999999999 -1.285e-05 2.15e-06 0 2 138 -120 
207 0.0007999 -0.0002601 -1e-07 0.0008000999999999999 -1.289999999999999e-05 1e-07 0 2 138 -139 
208 0.0007999 -0.0002601 -1.000000000000001e-07 0.0008000999999999999 -0.0002599 2.1e-06 0 2 139 -121 
209 0.0015999 -0.0002601 -1.000000000000001e-07 0.0016001 -0.0002599 2.1e-06 0 2 140 -122 
210 0.0007999 -0.0002601 -1e-07 0.0016001 -0.0002599 1e-07 0 2 139 -140 
211 0.0015999 0.0002599 -1.000000000000001e-07 0.0016001 0.0002601 2.1e-06 0 2 141 -123 
212 0.0015999 -0.0002601 -1e-07 0.0016001 0.0002601 1e-07 0 2 140 -141 
213 0.0007999 0.0002599 -1.000000000000001e-07 0.0008000999999999999 0.0002601 2.1e-06 0 2 142 -124 
214 0.0007999 0.0002599 -1e-07 0.0016001 0.0002601 1e-07 0 2 141 -142 
215 0.0007999 1.289999999999999e-05 -1e-07 0.0008000999999999999 0.0002601 1e-07 0 2 142 -143 
216 0.00079985 1.285e-05 -1.5e-07 0.0008001499999999999 1.315e-05 2.15e-06 0 2 143 -125 
217 -1.000000026663266e-07 1.29e-05 -1e-07 0.0008000999999999999 1.31e-05 1e-07 0 2 144 -143 
218 -1.000000026663446e-07 1.29e-05 -1.000000000000001e-07 9.999999733365545e-08 1.31e-05 2.1e-06 0 2 144 -126 
219 -0.0008000999999999999 1.29e-05 -1e-07 9.999999733362403e-08 1.31e-05 1e-07 0 2 145 -144 
220 -0.0008001499999999999 1.285e-05 -1.5e-07 -0.00079985 1.315e-05 2.15e-06 0 2 127 -145 
221 -0.0008000999999999999 1.289999999999999e-05 -1e-07 -0.0007999 0.0002601 1e-07 0 2 145 -146 
222 -0.0008000999999999999 0.0002599 -1.000000000000001e-07 -0.0007999 0.0002601 2.1e-06 0 2 146 -128 
223 -0.0016001 0.0002599 -1.000000000000001e-07 -0.0015999 0.0002601 2.1e-06 0 2 147 -129 
224 -0.0016001 0.0002599 -1e-07 -0.0007999 0.0002601 1e-07 0 2 146 -147 
225 -0.0016001 -0.0002601 -1e-07 -0.0015999 0.0002601 1e-07 0 2 147 -134 
226 -0.0018001 0.0004599 -0.0007501 0.0018001 0.0004601 -0.0007499000000000001 0 2 132 -148 
227 0.0017999 0.0004599 -0.0007501 0.0018001 0.0004601 1.000000000000024e-07 0 2 148 -130 
228 0.0017999 -0.0004601 -0.0007501 0.0018001 0.0004601 -0.0007499000000000001 0 2 133 -148 
19 -0.0012051 -4.51e-05 9e-07 -0.0011949 4.51e-05 1.1e-06 1 14 4 37 38 39 40 
38 0.0011949 -4.51e-05 9e-07 0.0012051 4.51e-05 1.1e-06 1 15 4 77 78 79 80 
39 -0.0008600999999999998 -6.1e-06 -1e-07 0.0008600999999999998 6.1e-06 1e-07 1 13 6 81 83 86 -84 -85 -82 
40 -0.0008600999999999998 -6.1e-06 -1.000000000000001e-07 -0.0008598999999999999 6.1e-06 2.1e-06 2 13 17 4 87 89 -88 -81 
41 -0.0008600999999999998 -6.1e-06 -1.000000000000001e-07 1.000000012306261e-07 -5.899999999999999e-06 2.1e-06 2 13 17 4 88 91 -90 -83 
42 -9.999999876937875e-08 -6.1e-06 -1.000000000000001e-07 0.0008600999999999998 -5.899999999999999e-06 2.1e-06 2 13 17 4 90 93 -92 -86 
43 0.0008598999999999999 -6.1e-06 -1.000000000000001e-07 0.0008600999999999998 6.1e-06 2.1e-06 2 13 17 4 94 95 -92 -84 
44 -1.000000012306261e-07 5.899999999999999e-06 -1.000000000000001e-07 0.0008600999999999998 6.1e-06 2.1e-06 2 13 17 4 96 97 -94 -85 
45 -0.0008600999999999998 5.899999999999999e-06 -1.000000000000001e-07 9.999999876943296e-08 6.1e-06 2.1e-06 2 13 17 4 87 98 -96 -82 
46 -0.0008600999999999998 -6.1e-06 1.9e-06 0.0008600999999999998 6.1e-06 2.1e-06 2 13 17 6 89 91 93 -95 -97 -98 
47 -0.0015301 -4.51e-05 -1.000000000000001e-07 -0.0012899 -4.489999999999999e-05 2.1e-06 2 5 17 4 -99 102 101 -100 
48 -0.0015301 -4.51e-05 -1e-07 -0.0012899 4.51e-05 1e-07 1 5 4 103 99 -105 104 
49 -0.0012901 -4.51e-05 -1.000000000000001e-07 -0.0012899 4.51e-05 2.1e-06 2 5 7 4 106 107 -100 -105 
50 -0.0015301 -4.51e-05 1.9e-06 -0.0012899 4.51e-05 2.1e-06 2 5 17 4 108 101 -107 109 
51 -0.0015301 -4.51e-05 -1.000000000000001e-07 -0.0015299 4.51e-05 2.1e-06 2 5 17 4 110 108 -102 -103 
52 -0.0015301 4.489999999999999e-05 -1.000000000000001e-07 -0.0012899 4.51e-05 2.1e-06 2 5 17 4 -104 106 109 -110 
53 -0.0012901 -4.51e-05 -1.000000000000001e-07 -0.0011099 -4.489999999999999e-05 2.1e-06 3 5 7 17 5 -111 100 113 -112 265 
54 -0.0012901 -4.51e-05 -1e-07 -0.0011099 4.51e-05 1e-07 2 5 7 4 105 111 115 114 
55 -0.0011101 -4.51e-05 -1.000000000000001e-07 -0.0011099 4.51e-05 2.1e-06 2 5 7 4 112 117 -116 -115 
56 -0.0012901 -4.51e-05 1.9e-06 -0.0011099 4.51e-05 2.1e-06 3 5 7 17 4 107 113 117 118 
57 -0.0012901 4.489999999999999e-05 -1.000000000000001e-07 -0.0011099 4.51e-05 2.1e-06 3 5 7 17 5 -114 116 118 -106 267 
58 -0.0011101 -4.51e-05 -1.000000000000001e-07 -0.0008699000000000001 -4.489999999999999e-05 2.1e-06 2 7 17 4 -119 112 121 -120 
59 -0.0011101 -4.51e-05 -1e-07 -0.0008699000000000001 4.51e-05 1e-07 1 7 4 -115 119 123 122 
60 -0.0008701 -4.51e-05 -1.000000000000001e-07 -0.0008699000000000001 4.51e-05 2.1e-06 2 7 17 4 120 125 -124 -123 
61 -0.0011101 -4.51e-05 1.9e-06 -0.0008699000000000001 4.51e-05 2.1e-06 2 7 17 4 -117 121 125 126 
62 -0.0011101 4.489999999999999e-05 -1.000000000000001e-07 -0.0008699000000000001 4.51e-05 2.1e-06 2 7 17 4 -122 124 126 -116 
63 0.0008699000000000001 -4.51e-05 -1.000000000000001e-07 0.0011101 -4.489999999999999e-05 2.1e-06 2 9 17 4 -127 130 129 -128 
64 0.0008699000000000001 -4.51e-05 -1e-07 0.0011101 4.51e-05 1e-07 1 9 4 131 127 -133 132 
65 0.0011099 -4.51e-05 -1.000000000000001e-07 0.0011101 4.51e-05 2.1e-06 2 9 11 4 134 135 -128 -133 
66 0.0008699000000000001 -4.51e-05 1.9e-06 0.0011101 4.51e-05 2.1e-06 2 9 17 4 136 129 -135 137 
67 0.0008699000000000001 -4.51e-05 -1.000000000000001e-07 0.0008701 4.51e-05 2.1e-06 2 9 17 4 138 136 -130 -131 
68 0.0008699000000000001 4.489999999999999e-05 -1.000000000000001e-07 0.0011101 4.51e-05 2.1e-06 2 9 17 4 -132 134 137 -138 
69 0.0011099 -4.51e-05 -1.000000000000001e-07 0.0012901 -4.489999999999999e-05 2.1e-06 3 9 11 17 5 -139 128 141 -140 305 
70 0.0011099 -4.51e-05 -1e-07 0.0012901 4.51e-05 1e-07 2 9 11 4 133 139 143 142 
71 0.0012899 -4.51e-05 -1.000000000000001e-07 0.0012901 4.51e-05 2.1e-06 2 9 11 4 140 145 -144 -143 
72 0.0011099 -4.51e-05 1.9e-06 0.0012901 4.51e-05 2.1e-06 3 9 11 17 4 135 141 145 146 
73 0.0011099 4.489999999999999e-05 -1.000000000000001e-07 0.0012901 4.51e-05 2.1e-06 3 9 11 17 5 -142 144 146 -134 307 
74 0.0012899 -4.51e-05 -1.000000000000001e-07 0.0015301 -4.489999999999999e-05 2.1e-06 2 11 17 4 -147 140 149 -148 
75 0.0012899 -4.51e-05 -1e-07 0.0015301 4.51e-05 1e-07 1 11 4 -143 147 151 150 
76 0.0015299 -4.51e-05 -1.000000000000001e-07 0.0015301 4.51e-05 2.1e-06 2 11 17 4 148 153 -152 -151 
77 0.0012899 -4.51e-05 1.9e-06 0.0015301 4.51e-05 2.1e-06 2 11 17 4 -145 149 153 154 
78 0.0012899 4.489999999999999e-05 -1.000000000000001e-07 0.0015301 4.51e-05 2.1e-06 2 11 17 4 -150 152 154 -144 
79 -0.0018011 -0.0004611 -0.0016501 -0.0018009 0.0004611 0.0008901 1 17 4 -155 158 157 -156 
80 -0.0018011 -0.0004611 -0.0016501 0.0018011 -0.0004609 0.0008901 1 17 4 -159 155 161 -160 
81 -0.0018011 -0.0004611 0.0008899 0.0018011 0.0004611 0.0008900999999999999 1 17 4 -156 161 163 -162 
82 -0.0018011 0.0004609 -0.0016501 0.0018011 0.0004611 0.0008901 1 17 4 -164 157 162 -165 
83 -0.0018011 -0.0004611 -0.0016501 0.0018011 0.0004611 -0.0016499 1 17 4 -158 159 166 -164 
84 0.0018009 -0.0004611 -0.0016501 0.0018011 0.0004611 0.0008901 1 17 4 -160 166 165 -163 
85 -0.0018001 -0.0004601 -1.000000000000001e-07 -0.0017999 0.0004601 2.1e-06 2 2 17 4 -167 170 169 -168 
86 -0.0018001 -0.0004601 -1.000000000000001e-07 0.0018001 -0.0004599 2.1e-06 2 2 17 4 -171 167 173 -172 
87 -0.0018001 -0.0004601 1.9e-06 0.0018001 0.0004601 2.1e-06 2 2 17 18 -168 173 175 -174 -176 -189 -188 -187 186 185 -184 -183 -182 -181 -180 -179 -178 -177 
88 -0.0018001 0.0004599 -1.000000000000001e-07 0.0018001 0.0004601 2.1e-06 2 2 17 4 -190 169 174 -191 
89 -0.0018001 -0.0004601 -0.0007501 -0.0017999 0.0004601 1.000000000000024e-07 1 17 4 -192 194 193 -170 
90 -0.0018001 -0.0004601 -0.0007501 0.0018001 -0.0004599 1.000000000000024e-07 1 17 4 -195 192 171 -196 
91 0.0017999 -0.0004601 -1.000000000000001e-07 0.0018001 0.0004601 2.1e-06 2 2 17 4 -172 197 191 -175 
92 -0.0016001 -0.0002601 -1.000000000000001e-07 -0.0007999 -0.0002599 2.1e-06 2 2 17 4 198 176 -199 -200 
93 -0.0008001499999999999 -0.00026015 -1.5e-07 -0.00079985 -1.284999999999999e-05 2.15e-06 2 2 17 4 -201 199 177 202 
94 -0.0008001499999999999 -1.315e-05 -1.5e-07 1.500000026663549e-07 -1.285e-05 2.15e-06 2 2 17 4 -203 -202 178 -204 
95 -1.499999973336523e-07 -1.315e-05 -1.5e-07 0.0008001499999999999 -1.285e-05 2.15e-06 2 2 17 4 -205 204 179 -206 
96 0.00079985 -0.00026015 -1.5e-07 0.0008001499999999999 -1.284999999999999e-05 2.15e-06 2 2 17 4 -207 206 180 -208 
97 0.0007999 -0.0002601 -1.000000000000001e-07 0.0016001 -0.0002599 2.1e-06 2 2 17 4 208 181 -209 -210 
98 0.0015999 -0.0002601 -1.000000000000001e-07 0.0016001 0.0002601 2.1e-06 2 2 17 4 209 182 -211 -212 
99 0.0007999 0.0002599 -1.000000000000001e-07 0.0016001 0.0002601 2.1e-06 2 2 17 4 211 183 -213 -214 
100 0.00079985 1.284999999999999e-05 -1.5e-07 0.0008001499999999999 0.00026015 2.15e-06 2 2 17 4 -215 213 184 -216 
101 -1.500000026663549e-07 1.285e-05 -1.5e-07 0.0008001499999999999 1.315e-05 2.15e-06 2 2 17 4 -217 218 185 -216 
102 -0.0008001499999999999 1.285e-05 -1.5e-07 1.499999973336523e-07 1.315e-05 2.15e-06 2 2 17 4 -219 -220 186 -218 
103 -0.0008001499999999999 1.284999999999999e-05 -1.5e-07 -0.00079985 0.00026015 2.15e-06 2 2 17 4 -221 -220 187 -222 
104 -0.0016001 0.0002599 -1.000000000000001e-07 -0.0007999 0.0002601 2.1e-06 2 2 17 4 222 188 -223 -224 
105 -0.0016001 -0.0002601 -1.000000000000001e-07 -0.0015999 0.0002601 2.1e-06 2 2 17 4 223 189 -198 -225 
106 -0.0018001 0.0004599 -0.0007501 0.0018001 0.0004601 1.000000000000024e-07 1 17 4 -226 193 190 -227 
107 -0.0018001 -0.0004601 -0.0007501 0.0018001 0.0004601 -0.0007499000000000001 1 17 4 -194 195 228 -226 
108 0.0017999 -0.0004601 -0.0007501 0.0018001 0.0004601 1.000000000000024e-07 1 17 4 -196 228 227 -197 
109 -0.0016001 -0.0002601 -1e-07 0.0016001 0.0002601 1e-07 1 17 36 225 200 201 203 205 207 210 212 214 215 -217 -219 221 224 -99 -103 -104 -114 -122 -123 -119 -111 -81 82 85 84 -86 -83 -127 -131 -132 -142 -150 -151 -147 -139 
110 -0.0018001 -0.0004601 -1e-07 0.0018001 0.0004601 1e-07 1 2 18 -170 171 197 -190 -200 -225 -224 -221 219 217 -215 -214 -212 -210 -207 -205 -203 -201 
7 -0.0008600999999999998 -6.1e-06 -1.000000000000001e-07 0.0008600999999999998 6.1e-06 2.1e-06 1 12 8 -40 -41 -42 43 44 45 -39 46 
10 -0.00180015 -0.00046015 -1.5e-07 0.00180015 0.00046015 2.15e-06 1 1 20 -85 -86 87 88 -110 91 92 93 94 95 96 97 98 99 100 -101 -102 103 104 105 
11 -0.0018001 -0.0004601 -0.0007501 0.0018001 0.0004601 1.000000000000024e-07 1 3 14 -89 108 -90 106 -107 110 109 48 54 59 64 70 75 39 
12 -0.0015301 -4.51e-05 -1.000000000000001e-07 -0.0012899 4.51e-05 2.1e-06 1 4 6 -47 -48 49 50 -51 -52 
13 -0.0012901 -4.51e-05 -1.000000000000001e-07 -0.0011099 4.51e-05 2.1e-06 2 4 6 6 -53 -54 -55 56 -49 -57 
14 -0.0011101 -4.51e-05 -1.000000000000001e-07 -0.0008699000000000001 4.51e-05 2.1e-06 1 6 6 -58 -59 -60 61 55 -62 
15 0.0008699000000000001 -4.51e-05 -1.000000000000001e-07 0.0011101 4.51e-05 2.1e-06 1 8 6 -63 -64 65 66 -67 -68 
16 0.0011099 -4.51e-05 -1.000000000000001e-07 0.0012901 4.51e-05 2.1e-06 2 8 10 6 -69 -70 -71 72 -65 -73 
17 0.0012899 -4.51e-05 -1.000000000000001e-07 0.0015301 4.51e-05 2.1e-06 1 10 6 -74 -75 -76 77 71 -78 
18 -0.00180115 -0.00046115 -0.00165015 0.00180115 0.00046115 0.0008901499999999999 1 16 60 -79 -80 81 82 -83 84 85 86 -87 -88 89 90 -91 -92 -93 -94 -95 -96 -97 -98 -99 -100 101 102 -103 -104 -105 -106 107 -108 -109 47 53 58 60 62 57 52 51 40 41 42 -43 -44 -45 63 69 74 76 78 73 68 67 -50 -56 -61 -46 -66 -72 -77 
$EndEntities
$Nodes
240 385 1 385
0 25 0 1
1
-0.001205 -4.5e-05 1e-06
0 26 0 1
2
-0.001195 -4.5e-05 1e-06
0 27 0 1
3
-0.001195 4.5e-05 1e-06
0 28 0 1
4
-0.001205 4.5e-05 1e-06
0 53 0 1
5
0.001195 -4.5e-05 1e-06
0 54 0 1
6
0.001205 -4.5e-05 1e-06
0 55 0 1
7
0.001205 4.5e-05 1e-06
0 56 0 1
8
0.001195 4.5e-05 1e-06
0 57 0 1
9
-0.0008599999999999999 6e-06 0
0 58 0 1
10
-0.0008599999999999999 -6e-06 0
0 59 0 1
11
-1.230620571091987e-15 5.999999999999999e-06 0
0 60 0 1
12
1.230621305880066e-15 -5.999999999999999e-06 0
0 61 0 1
13
0.0008599999999999999 6e-06 0
0 62 0 1
14
0.0008599999999999999 -6e-06 0
0 63 0 1
15
-0.0008599999999999999 6e-06 2e-06
0 64 0 1
16
-0.0008599999999999999 -6e-06 2e-06
0 65 0 1
17
1.230621305880066e-15 -5.999999999999999e-06 2e-06
0 66 0 1
18
0.0008599999999999999 -6e-06 2e-06
0 67 0 1
19
0.0008599999999999999 6e-06 2e-06
0 68 0 1
20
-1.230620571091987e-15 5.999999999999999e-06 2e-06
0 69 0 1
21
-0.00153 -4.5e-05 0
0 70 0 1
22
-0.00129 -4.5e-05 0
0 71 0 1
23
-0.00129 -4.5e-05 2e-06
0 72 0 1
24
-0.00153 -4.5e-05 2e-06
0 73 0 1
25
-0.00153 4.5e-05 0
0 74 0 1
26
-0.00129 4.5e-05 0
0 75 0 1
27
-0.00129 4.5e-05 2e-06
0 76 0 1
28
-0.00153 4.5e-05 2e-06
0 77 0 1
29
-0.00111 -4.5e-05 0
0 78 0 1
30
-0.00111 -4.5e-05 2e-06
0 79 0 1
31
-0.00111 4.5e-05 0
0 80 0 1
32
-0.00111 4.5e-05 2e-06
0 81 0 1
33
-0.00087 -4.5e-05 0
0 82 0 1
34
-0.00087 -4.5e-05 2e-06
0 83 0 1
35
-0.00087 4.5e-05 0
0 84 0 1
36
-0.00087 4.5e-05 2e-06
0 85 0 1
37
0.00087 -4.5e-05 0
0 86 0 1
38
0.00111 -4.5e-05 0
0 87 0 1
39
0.00111 -4.5e-05 2e-06
0 88 0 1
40
0.00087 -4.5e-05 2e-06
0 89 0 1
41
0.00087 4.5e-05 0
0 90 0 1
42
0.00111 4.5e-05 0
0 91 0 1
43
0.00111 4.5e-05 2e-06
0 92 0 1
44
0.00087 4.5e-05 2e-06
0 93 0 1
45
0.00129 -4.5e-05 0
0 94 0 1
46
0.00129 -4.5e-05 2e-06
0 95 0 1
47
0.00129 4.5e-05 0
0 96 0 1
48
0.00129 4.5e-05 2e-06
0 97 0 1
49
0.00153 -4.5e-05 0
0 98 0 1
50
0.00153 -4.5e-05 2e-06
0 99 0 1
51
0.00153 4.5e-05 0
0 100 0 1
52
0.00153 4.5e-05 2e-06
0 101 0 1
53
-0.001801 -0.000461 0.0008899999999999999
0 102 0 1
54
-0.001801 -0.000461 -0.00165
0 103 0 1
55
-0.001801 0.000461 0.0008899999999999999
0 104 0 1
56
-0.001801 0.000461 -0.00165
0 105 0 1
57
0.001801 -0.000461 -0.00165
0 106 0 1
58
0.001801 -0.000461 0.0008899999999999999
0 107 0 1
59
0.001801 0.000461 0.0008899999999999999
0 108 0 1
60
0.001801 0.000461 -0.00165
0 109 0 1
61
-0.0018 -0.00046 0
0 110 0 1
62
-0.0018 -0.00046 2e-06
0 111 0 1
63
-0.0018 0.00046 2e-06
0 112 0 1
64
-0.0018 0.00046 0
0 113 0 1
65
0.0018 -0.00046 0
0 114 0 1
66
0.0018 -0.00046 2e-06
0 115 0 1
67
0.0018 0.00046 2e-06
0 116 0 1
68
-0.0016 -0.00026 2e-06
0 117 0 1
69
-0.0007999999999999999 -0.00026 2e-06
0 118 0 1
70
-0.0007999999999999999 -1.3e-05 2e-06
0 119 0 1
71
2.666346162740144e-15 -1.3e-05 2e-06
0 120 0 1
72
0.0007999999999999999 -1.3e-05 2e-06
0 121 0 1
73
0.0007999999999999999 -0.00026 2e-06
0 122 0 1
74
0.0016 -0.00026 2e-06
0 123 0 1
75
0.0016 0.00026 2e-06
0 124 0 1
76
0.0007999999999999999 0.00026 2e-06
0 125 0 1
77
0.0007999999999999999 1.3e-05 2e-06
0 126 0 1
78
-2.666344570699305e-15 1.3e-05 2e-06
0 127 0 1
79
-0.0007999999999999999 1.3e-05 2e-06
0 128 0 1
80
-0.0007999999999999999 0.00026 2e-06
0 129 0 1
81
-0.0016 0.00026 2e-06
0 130 0 1
82
0.0018 0.00046 0
0 131 0 1
83
-0.0018 -0.00046 -0.00075
0 132 0 1
84
-0.0018 0.00046 -0.00075
0 133 0 1
85
0.0018 -0.00046 -0.00075
0 134 0 1
86
-0.0016 -0.00026 0
0 135 0 1
87
-0.0007999999999999999 -0.00026 0
0 136 0 1
88
-0.0007999999999999999 -1.3e-05 0
0 137 0 1
89
2.666346162740144e-15 -1.3e-05 0
0 138 0 1
90
0.0007999999999999999 -1.3e-05 0
0 139 0 1
91
0.0007999999999999999 -0.00026 0
0 140 0 1
92
0.0016 -0.00026 0
0 141 0 1
93
0.0016 0.00026 0
0 142 0 1
94
0.0007999999999999999 0.00026 0
0 143 0 1
95
0.0007999999999999999 1.3e-05 0
0 144 0 1
96
-2.666344570699305e-15 1.3e-05 0
0 145 0 1
97
-0.0007999999999999999 1.3e-05 0
0 146 0 1
98
-0.0007999999999999999 0.00026 0
0 147 0 1
99
-0.0016 0.00026 0
0 148 0 1
100
0.0018 0.00046 -0.00075
1 82 0 1
101
-0.000430000000000616 6e-06 0
1 83 0 1
102
-0.0004299999999993843 -5.999999999999999e-06 0
1 85 0 1
103
0.000429999999999385 6e-06 0
1 86 0 1
104
0.0004300000000006145 -5.999999999999999e-06 0
1 91 0 1
105
-0.0004299999999993843 -5.999999999999999e-06 2e-06
1 93 0 1
106
0.0004300000000006145 -5.999999999999999e-06 2e-06
1 97 0 1
107
0.000429999999999385 6e-06 2e-06
1 98 0 1
108
-0.000430000000000616 6e-06 2e-06
1 155 0 4
109
110
111
112
-0.001801 -0.000461 -0.0011095276537248
-0.001801 -0.000461 -0.000609397180737733
-0.001801 -0.000461 -0.0001095981204918238
-0.001801 -0.000461 0.0003902009397540854
1 156 0 1
113
-0.001801 0 0.0008899999999999999
1 157 0 4
114
115
116
117
-0.001801 0.000461 -0.0011095276537248
-0.001801 0.000461 -0.000609397180737733
-0.001801 0.000461 -0.0001095981204918238
-0.001801 0.000461 0.0003902009397540854
1 158 0 1
118
-0.001801 0 -0.00165
1 159 0 5
119
120
121
122
123
-0.001200666418682305 -0.000461 -0.00165
-0.000600333166486056 -0.000461 -0.00165
-4.98732999343332e-18 -0.000461 -0.00165
0.0006003331664860417 -0.000461 -0.00165
0.001200666418682297 -0.000461 -0.00165
1 160 0 4
124
125
126
127
0.001801 -0.000461 -0.0011095276537248
0.001801 -0.000461 -0.000609397180737733
0.001801 -0.000461 -0.0001095981204918238
0.001801 -0.000461 0.0003902009397540854
1 161 0 7
128
129
130
131
132
133
134
-0.001350749999999999 -0.000461 0.0008899999999999999
-0.0009004999999999994 -0.000461 0.0008899999999999999
-0.0004502499999999995 -0.000461 0.0008899999999999999
4.336808689942018e-19 -0.000461 0.0008899999999999999
0.0004502500000000006 -0.000461 0.0008899999999999999
0.0009005000000000003 -0.000461 0.0008899999999999999
0.00135075 -0.000461 0.0008899999999999999
1 162 0 7
135
136
137
138
139
140
141
-0.001350749999999999 0.000461 0.0008899999999999999
-0.0009004999999999994 0.000461 0.0008899999999999999
-0.0004502499999999995 0.000461 0.0008899999999999999
4.336808689942018e-19 0.000461 0.0008899999999999999
0.0004502500000000006 0.000461 0.0008899999999999999
0.0009005000000000003 0.000461 0.0008899999999999999
0.00135075 0.000461 0.0008899999999999999
1 163 0 1
142
0.001801 0 0.0008899999999999999
1 164 0 5
143
144
145
146
147
-0.001200666418682305 0.000461 -0.00165
-0.000600333166486056 0.000461 -0.00165
-4.98732999343332e-18 0.000461 -0.00165
0.0006003331664860417 0.000461 -0.00165
0.001200666418682297 0.000461 -0.00165
1 165 0 4
148
149
150
151
0.001801 0.000461 -0.0011095276537248
0.001801 0.000461 -0.000609397180737733
0.001801 0.000461 -0.0001095981204918238
0.001801 0.000461 0.0003902009397540854
1 166 0 1
152
0.001801 0 -0.00165
1 168 0 1
153
-0.0018 1.13841228110978e-18 2e-06
1 170 0 1
154
-0.0018 1.13841228110978e-18 0
1 171 0 7
155
156
157
158
159
160
161
-0.001350000000000001 -0.00046 0
-0.0009000000000000011 -0.00046 0
-0.0004500000000000027 -0.00046 0
-4.77048955893622e-18 -0.00046 0
0.0004499999999999953 -0.00046 0
0.0008999999999999969 -0.00046 0
0.001349999999999999 -0.00046 0
1 173 0 7
162
163
164
165
166
167
168
-0.001350000000000001 -0.00046 2e-06
-0.0009000000000000011 -0.00046 2e-06
-0.0004500000000000027 -0.00046 2e-06
-4.77048955893622e-18 -0.00046 2e-06
0.0004499999999999953 -0.00046 2e-06
0.0008999999999999969 -0.00046 2e-06
0.001349999999999999 -0.00046 2e-06
1 174 0 7
169
170
171
172
173
174
175
-0.001350000000000001 0.00046 2e-06
-0.0009000000000000011 0.00046 2e-06
-0.0004500000000000027 0.00046 2e-06
-4.77048955893622e-18 0.00046 2e-06
0.0004499999999999953 0.00046 2e-06
0.0008999999999999969 0.00046 2e-06
0.001349999999999999 0.00046 2e-06
1 175 0 1
176
0.0018 1.13841228110978e-18 2e-06
1 176 0 1
177
-0.001200000000000001 -0.00026 2e-06
1 178 0 1
178
-0.0003999999999986667 -1.3e-05 2e-06
1 179 0 1
179
0.0004000000000013323 -1.3e-05 2e-06
1 181 0 1
180
0.001199999999999999 -0.00026 2e-06
1 182 0 1
181
0.0016 0 2e-06
1 183 0 1
182
0.001200000000000001 0.00026 2e-06
1 185 0 1
183
0.0003999999999986669 1.3e-05 2e-06
1 186 0 1
184
-0.000400000000001334 1.3e-05 2e-06
1 188 0 1
185
-0.001199999999999999 0.00026 2e-06
1 189 0 1
186
-0.0016 0 2e-06
1 190 0 7
187
188
189
190
191
192
193
-0.001350000000000001 0.00046 0
-0.0009000000000000011 0.00046 0
-0.0004500000000000027 0.00046 0
-4.77048955893622e-18 0.00046 0
0.0004499999999999953 0.00046 0
0.0008999999999999969 0.00046 0
0.001349999999999999 0.00046 0
1 192 0 1
194
-0.0018 -0.00046 -0.0003749999999999999
1 193 0 1
195
-0.0018 0.00046 -0.0003749999999999999
1 194 0 1
196
-0.0018 1.13841228110978e-18 -0.00075
1 195 0 7
197
198
199
200
201
202
203
-0.001350000000000001 -0.00046 -0.00075
-0.0009000000000000011 -0.00046 -0.00075
-0.0004500000000000027 -0.00046 -0.00075
-4.77048955893622e-18 -0.00046 -0.00075
0.0004499999999999953 -0.00046 -0.00075
0.0008999999999999969 -0.00046 -0.00075
0.001349999999999999 -0.00046 -0.00075
1 196 0 1
204
0.0018 -0.00046 -0.0003749999999999999
1 197 0 1
205
0.0018 1.13841228110978e-18 0
1 200 0 1
206
-0.001200000000000001 -0.00026 0
1 203 0 1
207
-0.0003999999999986667 -1.3e-05 0
1 205 0 1
208
0.0004000000000013323 -1.3e-05 0
1 210 0 1
209
0.001199999999999999 -0.00026 0
1 212 0 1
210
0.0016 0 0
1 214 0 1
211
0.001200000000000001 0.00026 0
1 217 0 1
212
0.0003999999999986669 1.3e-05 0
1 219 0 1
213
-0.000400000000001334 1.3e-05 0
1 224 0 1
214
-0.001199999999999999 0.00026 0
1 225 0 1
215
-0.0016 0 0
1 226 0 7
216
217
218
219
220
221
222
-0.001350000000000001 0.00046 -0.00075
-0.0009000000000000011 0.00046 -0.00075
-0.0004500000000000027 0.00046 -0.00075
-4.77048955893622e-18 0.00046 -0.00075
0.0004499999999999953 0.00046 -0.00075
0.0008999999999999969 0.00046 -0.00075
0.001349999999999999 0.00046 -0.00075
1 227 0 1
223
0.0018 0.00046 -0.0003749999999999999
1 228 0 1
224
0.0018 1.13841228110978e-18 -0.00075
2 19 0 0
2 38 0 0
2 39 0 0
2 40 0 0
2 41 0 0
2 42 0 0
2 43 0 0
2 44 0 0
2 45 0 0
2 46 0 0
2 47 0 0
2 48 0 0
2 49 0 0
2 50 0 0
2 51 0 0
2 52 0 0
2 53 0 0
2 54 0 1
225
-0.0012 0 0
2 55 0 0
2 56 0 1
226
-0.0012 0 2e-06
2 57 0 0
2 58 0 0
2 59 0 0
2 60 0 0
2 61 0 0
2 62 0 0
2 63 0 0
2 64 0 0
2 65 0 0
2 66 0 0
2 67 0 0
2 68 0 0
2 69 0 0
2 70 0 1
227
0.0012 0 0
2 71 0 0
2 72 0 1
228
0.0012 0 2e-06
2 73 0 0
2 74 0 0
2 75 0 0
2 76 0 0
2 77 0 0
2 78 0 0
2 79 0 6
229
230
231
232
233
234
-0.001801 -9.286882282486279e-06 -0.0003595117412925487
-0.001801 2.483413346576117e-05 -0.0008594624172312665
-0.001801 1.863554505083002e-05 0.0001932866751818581
-0.001801 -8.049107215772448e-05 -0.001251812570499551
-0.001801 -0.0001067295314535877 0.0005438308933471559
-0.001801 0.0001979904095507391 0.0006101837513972348
2 80 0 35
235
236
237
238
239
240
241
242
243
244
245
246
247
248
249
250
251
252
253
254
255
256
257
258
259
260
261
262
263
264
265
266
267
268
269
-0.001308147058207397 -0.000461 -0.0003198766850214837
0.001388636192542887 -0.000461 -0.000374524057041915
-0.0002592313405817232 -0.000461 0.0005075323814057889
0.0002528356168919428 -0.000461 -0.001140120333598778
0.0006749055642901211 -0.000461 0.0005066817728286461
-0.001125624999999999 -0.000461 0.0005000720619460564
-0.0009333245998602722 -0.000461 -0.001134411055964685
-0.0003190944934468179 -0.000461 -0.001164772753543847
-3.114806997838197e-05 -0.000461 -0.0006998538312626467
0.000473367138280337 -0.000461 -0.0006501287105254393
0.0001810754149883928 -0.000461 -0.0002397786064599094
-0.000321149618303835 -0.000461 -0.0002870970927593385
0.0006707207214386008 -0.000461 -0.0002252961983651644
0.0008945642366924647 -0.000461 -0.001117794859726677
-0.0005741597133590444 -0.000461 -0.000696996264381067
-0.0007883839567347814 -0.000461 -0.0002788338748346707
-0.001368065646421793 -0.000461 -0.0008594624172312665
0.001375313683220032 -0.000461 -0.0008476827179937299
0.001368161317039455 -0.000461 0.0001403014096311309
-0.0005276847248128682 -0.000461 0.0001225080800643624
0.0001931004186718848 -0.000461 0.0004997706463207017
0.001125625 -0.000461 0.0005097201227372017
0.0009737086401654898 -0.000461 -0.0005719128619780117
-0.001412951248615195 -0.000461 0.0001902010850706383
-0.0007040132850466346 -0.000461 0.0005059595695591122
-7.91819185084852e-05 -0.000461 0.0001033499696942656
-0.001014105073915911 -0.000461 -0.000635177628142973
0.0004321568144242116 -0.000461 0.0001293902016597317
0.0008852032143351679 -0.000461 0.0001407911133794002
-0.0009778008789028127 -0.000461 0.0001200050394640024
-0.001420811332992874 -0.000461 -0.00128068022538415
0.001414508867718959 -0.000461 -0.001275001046289041
-0.001481146788598557 -0.000461 0.0005547634202985308
0.001489307263407891 -0.000461 0.0005640444944244834
0.00105224711759412 -0.000461 -0.0001889631215435501
2 81 0 10
270
271
272
273
274
275
276
277
278
279
0.0002251250000000001 -2.433826509626747e-05 0.0008899999999999999
0.001125625000000001 7.107206194605683e-05 0.0008899999999999999
-0.001125624999999999 7.107206194605661e-05 0.0008899999999999999
-0.0006753749999999998 -2.433826509626742e-05 0.0008899999999999999
-0.0002251250000000001 9.086608500257832e-06 0.0008899999999999999
0.0006753750000000002 7.78896614163165e-06 0.0008899999999999999
-0.001507297631108996 -0.0001189222461390292 0.0008899999999999999
0.001507297631108997 -0.0001189222461390292 0.0008899999999999999
0.001533917518729857 0.0001907356879724325 0.0008899999999999999
-0.001533917518729856 0.0001907356879724325 0.0008899999999999999
2 82 0 35
280
281
282
283
284
285
286
287
288
289
290
291
292
293
294
295
296
297
298
299
300
301
302
303
304
305
306
307
308
309
310
311
312
313
314
-0.001308147058207397 0.000461 -0.0003198766850214837
0.001388636192542887 0.000461 -0.000374524057041915
-0.0002592313405817232 0.000461 0.0005075323814057889
0.0002528356168919428 0.000461 -0.001140120333598778
0.0006749055642901211 0.000461 0.0005066817728286461
-0.001125624999999999 0.000461 0.0005000720619460564
-0.0009333245998602722 0.000461 -0.001134411055964685
-0.0003190944934468179 0.000461 -0.001164772753543847
-3.114806997838197e-05 0.000461 -0.0006998538312626467
0.000473367138280337 0.000461 -0.0006501287105254393
0.0001810754149883928 0.000461 -0.0002397786064599094
-0.000321149618303835 0.000461 -0.0002870970927593385
0.0006707207214386008 0.000461 -0.0002252961983651644
0.0008945642366924647 0.000461 -0.001117794859726677
-0.0005741597133590444 0.000461 -0.000696996264381067
-0.0007883839567347814 0.000461 -0.0002788338748346707
-0.001368065646421793 0.000461 -0.0008594624172312665
0.001375313683220032 0.000461 -0.0008476827179937299
0.001368161317039455 0.000461 0.0001403014096311309
-0.0005276847248128682 0.000461 0.0001225080800643624
0.0001931004186718848 0.000461 0.0004997706463207017
0.001125625 0.000461 0.0005097201227372017
0.0009737086401654898 0.000461 -0.0005719128619780117
-0.001412951248615195 0.000461 0.0001902010850706383
-0.0007040132850466346 0.000461 0.0005059595695591122
-7.91819185084852e-05 0.000461 0.0001033499696942656
-0.001014105073915911 0.000461 -0.000635177628142973
0.0004321568144242116 0.000461 0.0001293902016597317
0.0008852032143351679 0.000461 0.0001407911133794002
-0.0009778008789028127 0.000461 0.0001200050394640024
-0.001420811332992874 0.000461 -0.00128068022538415
0.001414508867718959 0.000461 -0.001275001046289041
-0.001481146788598557 0.000461 0.0005547634202985308
0.001489307263407891 0.000461 0.0005640444944244834
0.00105224711759412 0.000461 -0.0001889631215435501
2 83 0 6
315
316
317
318
319
320
0.0003001665851022745 0 -0.00165
-0.0003001665867290717 0 -0.00165
0.0008826327564206006 4.173238090390938e-06 -0.00165
-0.0008826327566142762 -4.17323809039148e-06 -0.00165
0.001350749896292085 3.505519995928425e-05 -0.00165
-0.001350749896292091 -3.50551999592881e-05 -0.00165
2 84 0 6
321
322
323
324
325
326
0.001801 -9.286882282486225e-06 -0.0003595117412925485
0.001801 2.48341334657609e-05 -0.0008594624172312665
0.001801 1.863554505083002e-05 0.0001932866751818581
0.001801 -8.049107215772465e-05 -0.001251812570499551
0.001801 -0.0001067295314535877 0.0005438308933471559
0.001801 0.0001979904095507391 0.0006101837513972348
2 85 0 0
2 86 0 0
2 87 0 8
327
328
329
330
331
332
333
334
0.0002249999999999954 -0.0002588713646527206 2e-06
0.0005436194425099906 -0.0002171868651177247 2e-06
-0.0002250000000000036 0.0002588713646527226 2e-06
-0.0005436194425099924 0.0002171868651177237 2e-06
0.0002249999999999954 0.0002588713646537645 2e-06
0.000543619442509504 0.0002171868651171713 2e-06
-0.0002250000000000038 -0.0002588713646537669 2e-06
-0.0005436194425095058 -0.0002171868651171699 2e-06
2 88 0 0
2 89 0 3
335
336
337
-0.0018 -0.0002176528532608692 -0.0005073017857142857
-0.0018 8.643002717391326e-05 -0.0003636125
-0.0018 -0.000210244565217391 -0.0002491828571428572
2 90 0 8
338
339
340
341
342
343
344
345
-0.001106250000000001 -0.00046 -0.0003837500000000001
-0.0002250000000000038 -0.00046 -0.000375
-0.000675000000000002 -0.00046 -0.0003750000000000001
0.0002249999999999958 -0.00046 -0.000375
0.0006749999999999961 -0.00046 -0.0003749999999999999
0.001106249999999998 -0.00046 -0.0003837499999999999
0.0014625 -0.00046 -0.0004274999999999992
-0.001462500000000001 -0.00046 -0.0004275000000000003
2 91 0 0
2 92 0 0
2 93 0 0
2 94 0 0
2 95 0 0
2 96 0 0
2 97 0 0
2 98 0 0
2 99 0 0
2 100 0 0
2 101 0 0
2 102 0 0
2 103 0 0
2 104 0 0
2 105 0 0
2 106 0 8
346
347
348
349
350
351
352
353
-0.0002250000000000038 0.00046 -0.000375
-0.000675000000000002 0.00046 -0.000375
0.0002249999999999958 0.00046 -0.0003750000000000001
-0.001106250000000001 0.00046 -0.0003837500000000001
0.0006749999999999961 0.00046 -0.000375
0.001106249999999998 0.00046 -0.0003837499999999999
0.0014625 0.00046 -0.0004274999999999991
-0.0014625 0.00046 -0.0004275000000000003
2 107 0 10
354
355
356
357
358
359
360
361
362
363
-0.0006750000000000022 -2.247321571400814e-05 -0.00075
0.0002249999999999954 2.168404344971009e-19 -0.00075
0.001124999999999997 -7.028856829700126e-05 -0.00075
-0.001125000000000001 7.02885682970037e-05 -0.00075
-0.0002250000000000036 -3.74553595233469e-06 -0.00075
0.0006749999999999961 -1.171476138283348e-05 -0.00075
-0.001506526667038097 -0.0001187038073768263 -0.00075
0.001506526667038095 0.0001187038073768269 -0.00075
0.001533075238148299 -0.0001902263944171676 -0.00075
-0.0015330752381483 0.0001902263944171686 -0.00075
2 108 0 3
364
365
366
0.0018 -0.0002176528532608692 -0.0005073017857142857
0.0018 8.643002717391326e-05 -0.0003636125
0.0018 -0.000210244565217391 -0.0002491828571428572
2 109 0 0
2 110 0 8
367
368
369
370
371
372
373
374
0.0002249999999999954 -0.0002588713646527207 0
0.0005436194425099906 -0.0002171868651177247 0
-0.0002250000000000038 0.0002588713646527226 0
-0.0005436194425099922 0.0002171868651177236 0
0.0002249999999999954 0.0002588713646537645 0
0.000543619442509504 0.0002171868651171713 0
-0.0002250000000000038 -0.0002588713646537669 0
-0.0005436194425095058 -0.0002171868651171699 0
3 7 0 0
3 10 0 0
3 11 0 6
375
376
377
378
379
380
-0.001374033796584259 -1.327990602513322e-05 -0.0003704116447808618
0.001385076845734659 -4.626717166498212e-06 -0.000379094336111243
-0.0005999999999993333 -2.492790522098287e-05 -0.0003938606036430333
-0.0009557898303470653 2.052272759540677e-06 -0.000375190110343312
0.0005999999999993334 2.492790522098483e-05 -0.0003938606036430298
0.0009587636801141815 -5.811716060593577e-06 -0.0003728428950020167
3 12 0 0
3 13 0 0
3 14 0 0
3 15 0 0
3 16 0 0
3 17 0 0
3 18 0 5
381
382
383
384
385
-0.0008407326305909748 2.440725535250262e-05 0.0001542762207702354
-0.0001497643083342609 1.03791245940719e-05 0.0001050778549245397
-0.0008328290456431534 3.374896265560177e-05 0.0006170855620715144
0.0007400113770587092 -2.387083775993755e-06 0.0004584633329985309
-0.0002000000000020002 9.499999958979313e-06 0.0004202831366980535
$EndNodes
$Elements
84 2598 1 2598
2 19 2 2
1 4 1 2 
2 4 2 3 
2 38 2 2
3 8 5 6 
4 8 6 7 
2 39 2 8
5 101 9 10 
6 101 10 102 
7 102 12 11 
8 11 12 103 
9 11 101 102 
10 103 12 104 
11 104 14 13 
12 13 103 104 
2 40 2 2
13 10 15 9 
14 10 16 15 
2 41 2 4
15 102 16 10 
16 105 12 17 
17 102 12 105 
18 102 105 16 
2 42 2 4
19 104 17 12 
20 106 14 18 
21 104 14 106 
22 104 106 17 
2 43 2 2
23 14 13 19 
24 14 19 18 
2 44 2 4
25 103 11 20 
26 107 19 13 
27 103 107 13 
28 103 20 107 
2 45 2 4
29 101 9 15 
30 108 20 11 
31 101 108 11 
32 101 15 108 
2 46 2 8
33 108 15 16 
34 108 16 105 
35 105 17 20 
36 17 107 20 
37 17 106 107 
38 19 106 18 
39 107 106 19 
40 20 108 105 
2 47 2 2
41 22 24 21 
42 23 24 22 
2 48 2 2
43 25 22 21 
44 26 22 25 
2 49 2 2
45 22 27 23 
46 22 26 27 
2 50 2 2
47 28 24 23 
48 27 28 23 
2 51 2 2
49 21 24 28 
50 21 28 25 
2 52 2 2
51 28 26 25 
52 28 27 26 
2 53 2 6
53 2 1 29 
54 1 2 30 
55 1 23 22 
56 29 1 22 
57 1 30 23 
58 30 2 29 
2 54 2 4
59 22 26 225 
60 29 22 225 
61 26 31 225 
62 31 29 225 
2 55 2 2
63 31 30 29 
64 31 32 30 
2 56 2 4
65 23 226 27 
66 30 226 23 
67 27 226 32 
68 32 226 30 
2 57 2 6
69 4 3 31 
70 3 4 32 
71 3 32 31 
72 27 4 26 
73 4 31 26 
74 4 27 32 
2 58 2 2
75 33 30 29 
76 34 30 33 
2 59 2 2
77 31 33 29 
78 35 33 31 
2 60 2 2
79 35 34 33 
80 35 36 34 
2 61 2 2
81 32 30 34 
82 36 32 34 
2 62 2 2
83 32 35 31 
84 32 36 35 
2 63 2 2
85 38 40 37 
86 39 40 38 
2 64 2 2
87 41 38 37 
88 42 38 41 
2 65 2 2
89 38 43 39 
90 38 42 43 
2 66 2 2
91 44 40 39 
92 43 44 39 
2 67 2 2
93 37 40 44 
94 37 44 41 
2 68 2 2
95 44 42 41 
96 44 43 42 
2 69 2 6
97 6 5 38 
98 39 5 6 
99 5 39 38 
100 45 6 38 
101 46 39 6 
102 46 6 45 
2 70 2 4
103 38 42 227 
104 45 38 227 
105 42 47 227 
106 47 45 227 
2 71 2 2
107 47 46 45 
108 47 48 46 
2 72 2 4
109 39 228 43 
110 46 228 39 
111 43 228 48 
112 48 228 46 
2 73 2 6
113 8 7 42 
114 43 7 8 
115 7 47 42 
116 7 43 48 
117 7 48 47 
118 43 8 42 
2 74 2 2
119 49 46 45 
120 50 46 49 
2 75 2 2
121 47 51 45 
122 51 49 45 
2 76 2 2
123 51 50 49 
124 51 52 50 
2 77 2 2
125 48 46 50 
126 52 48 50 
2 78 2 2
127 48 51 47 
128 48 52 51 
2 79 2 24
129 112 53 233 
130 53 113 233 
131 54 109 232 
132 118 54 232 
133 113 55 234 
134 55 117 234 
135 114 56 232 
136 56 118 232 
137 109 110 230 
138 109 230 232 
139 110 111 229 
140 110 229 230 
141 111 112 231 
142 229 111 231 
143 231 112 233 
144 233 113 234 
145 115 114 230 
146 230 114 232 
147 116 115 229 
148 229 115 230 
149 117 116 231 
150 116 229 231 
151 117 231 234 
152 231 233 234 
2 80 2 92
153 53 112 267 
154 128 53 267 
155 109 54 265 
156 54 119 265 
157 123 57 266 
158 57 124 266 
159 127 58 268 
160 58 134 268 
161 110 109 251 
162 251 109 265 
163 111 110 235 
164 235 110 251 
165 112 111 258 
166 111 235 258 
167 112 258 267 
168 119 120 241 
169 119 241 265 
170 120 121 242 
171 241 120 242 
172 121 122 238 
173 121 238 242 
174 122 123 248 
175 238 122 248 
176 248 123 266 
177 124 125 252 
178 124 252 266 
179 125 126 236 
180 125 236 252 
181 126 127 253 
182 236 126 253 
183 253 127 268 
184 129 128 240 
185 240 128 267 
186 130 129 259 
187 129 240 259 
188 131 130 237 
189 237 130 259 
190 132 131 255 
191 131 237 255 
192 133 132 239 
193 239 132 255 
194 134 133 256 
195 133 239 256 
196 134 256 268 
197 250 235 261 
198 235 250 264 
199 235 251 261 
200 258 235 264 
201 252 236 257 
202 236 253 269 
203 257 236 269 
204 254 237 259 
205 237 254 260 
206 255 237 260 
207 242 238 243 
208 243 238 244 
209 244 238 248 
210 239 255 262 
211 256 239 263 
212 239 262 263 
213 240 258 264 
214 258 240 267 
215 259 240 264 
216 241 242 249 
217 241 249 261 
218 251 241 261 
219 241 251 265 
220 242 243 249 
221 243 244 245 
222 243 245 246 
223 243 246 249 
224 245 244 247 
225 247 244 257 
226 244 248 257 
227 246 245 260 
228 245 247 262 
229 260 245 262 
230 249 246 250 
231 250 246 254 
232 254 246 260 
233 247 257 269 
234 262 247 263 
235 263 247 269 
236 248 252 257 
237 252 248 266 
238 249 250 261 
239 250 254 264 
240 253 256 263 
241 256 253 268 
242 253 263 269 
243 254 259 264 
244 255 260 262 
2 81 2 38
245 53 276 113 
246 128 276 53 
247 113 279 55 
248 55 279 135 
249 58 277 134 
250 142 277 58 
251 141 278 59 
252 59 278 142 
253 276 279 113 
254 129 272 128 
255 272 276 128 
256 130 273 129 
257 129 273 272 
258 131 274 130 
259 130 274 273 
260 132 270 131 
261 270 274 131 
262 133 275 132 
263 132 275 270 
264 134 271 133 
265 271 275 133 
266 134 277 271 
267 135 272 136 
268 135 279 272 
269 136 273 137 
270 272 273 136 
271 137 274 138 
272 273 274 137 
273 138 270 139 
274 138 274 270 
275 139 275 140 
276 270 275 139 
277 140 271 141 
278 140 275 271 
279 271 278 141 
280 142 278 277 
281 277 278 271 
282 272 279 276 
2 82 2 92
283 55 312 117 
284 135 312 55 
285 114 310 56 
286 56 310 143 
287 59 313 141 
288 151 313 59 
289 147 311 60 
290 60 311 148 
291 115 296 114 
292 296 310 114 
293 116 280 115 
294 280 296 115 
295 117 303 116 
296 116 303 280 
297 117 312 303 
298 136 285 135 
299 285 312 135 
300 137 304 136 
301 136 304 285 
302 138 282 137 
303 282 304 137 
304 139 300 138 
305 138 300 282 
306 140 284 139 
307 284 300 139 
308 141 301 140 
309 140 301 284 
310 141 313 301 
311 143 286 144 
312 143 310 286 
313 144 287 145 
314 286 287 144 
315 145 283 146 
316 145 287 283 
317 146 293 147 
318 283 293 146 
319 293 311 147 
320 148 297 149 
321 148 311 297 
322 149 281 150 
323 149 297 281 
324 150 298 151 
325 281 298 150 
326 298 313 151 
327 295 306 280 
328 280 309 295 
329 280 306 296 
330 303 309 280 
331 297 302 281 
332 281 314 298 
333 302 314 281 
334 299 304 282 
335 282 305 299 
336 300 305 282 
337 287 288 283 
338 288 289 283 
339 289 293 283 
340 284 307 300 
341 301 308 284 
342 284 308 307 
343 285 309 303 
344 303 312 285 
345 304 309 285 
346 286 294 287 
347 286 306 294 
348 296 306 286 
349 286 310 296 
350 287 294 288 
351 288 290 289 
352 288 291 290 
353 288 294 291 
354 290 292 289 
355 292 302 289 
356 289 302 293 
357 291 305 290 
358 290 307 292 
359 305 307 290 
360 294 295 291 
361 295 299 291 
362 299 305 291 
363 292 314 302 
364 307 308 292 
365 308 314 292 
366 293 302 297 
367 297 311 293 
368 294 306 295 
369 295 309 299 
370 298 308 301 
371 301 313 298 
372 298 314 308 
373 299 309 304 
374 300 307 305 
2 83 2 26
375 54 118 320 
376 119 54 320 
377 118 56 320 
378 56 143 320 
379 57 123 319 
380 152 57 319 
381 147 60 319 
382 60 152 319 
383 120 119 318 
384 318 119 320 
385 121 120 316 
386 316 120 318 
387 122 121 315 
388 315 121 316 
389 123 122 317 
390 122 315 317 
391 123 317 319 
392 143 144 318 
393 143 318 320 
394 144 145 316 
395 144 316 318 
396 145 146 315 
397 145 315 316 
398 146 147 317 
399 315 146 317 
400 317 147 319 
2 84 2 24
401 57 324 124 
402 152 324 57 
403 127 325 58 
404 58 325 142 
405 142 326 59 
406 59 326 151 
407 148 324 60 
408 60 324 152 
409 124 322 125 
410 124 324 322 
411 125 321 126 
412 125 322 321 
413 126 323 127 
414 321 323 126 
415 323 325 127 
416 325 326 142 
417 149 322 148 
418 322 324 148 
419 150 321 149 
420 321 322 149 
421 151 323 150 
422 150 323 321 
423 151 326 323 
424 323 326 325 
2 85 2 4
425 62 61 154 
426 153 62 154 
427 154 64 63 
428 63 153 154 
2 86 2 16
429 61 62 155 
430 62 162 155 
431 168 66 65 
432 65 161 168 
433 155 162 156 
434 164 157 156 
435 162 163 156 
436 156 163 164 
437 165 158 157 
438 165 157 164 
439 166 159 158 
440 166 158 165 
441 167 160 159 
442 167 159 166 
443 168 161 160 
444 168 160 167 
2 87 2 60
445 62 153 68 
446 162 62 68 
447 81 153 63 
448 81 63 169 
449 168 74 66 
450 74 176 66 
451 75 175 67 
452 176 75 67 
453 68 153 186 
454 177 162 68 
455 69 70 334 
456 164 163 69 
457 69 163 177 
458 164 69 334 
459 70 178 334 
460 165 71 327 
461 71 165 333 
462 178 71 333 
463 71 179 327 
464 72 73 328 
465 179 72 328 
466 73 167 166 
467 73 166 328 
468 167 73 180 
469 74 168 180 
470 176 74 181 
471 75 182 175 
472 75 176 181 
473 76 77 332 
474 76 173 174 
475 173 76 332 
476 182 76 174 
477 77 183 332 
478 172 78 329 
479 78 172 331 
480 183 78 331 
481 78 184 329 
482 79 80 330 
483 184 79 330 
484 80 170 171 
485 170 80 185 
486 80 171 330 
487 153 81 186 
488 81 169 185 
489 163 162 177 
490 165 164 333 
491 333 164 334 
492 166 165 327 
493 166 327 328 
494 168 167 180 
495 169 170 185 
496 171 172 329 
497 171 329 330 
498 172 173 331 
499 331 173 332 
500 182 174 175 
501 178 333 334 
502 327 179 328 
503 183 331 332 
504 329 184 330 
2 88 2 16
505 64 187 63 
506 63 187 169 
507 67 193 82 
508 175 193 67 
509 169 188 170 
510 187 188 169 
511 188 171 170 
512 172 171 189 
513 171 188 189 
514 173 172 190 
515 172 189 190 
516 174 173 191 
517 173 190 191 
518 175 174 192 
519 174 191 192 
520 175 192 193 
2 89 2 12
521 61 337 154 
522 194 337 61 
523 154 336 64 
524 64 336 195 
525 83 335 194 
526 196 335 83 
527 195 336 84 
528 84 336 196 
529 154 337 336 
530 335 337 194 
531 196 336 335 
532 336 337 335 
2 90 2 34
533 155 345 61 
534 61 345 194 
535 65 344 161 
536 204 344 65 
537 194 345 83 
538 83 345 197 
539 203 344 85 
540 85 344 204 
541 156 338 155 
542 338 345 155 
543 157 340 156 
544 156 340 338 
545 158 339 157 
546 339 340 157 
547 159 341 158 
548 158 341 339 
549 160 342 159 
550 159 342 341 
551 161 343 160 
552 160 343 342 
553 161 344 343 
554 197 338 198 
555 197 345 338 
556 198 340 199 
557 338 340 198 
558 199 339 200 
559 199 340 339 
560 200 341 201 
561 339 341 200 
562 201 342 202 
563 341 342 201 
564 202 343 203 
565 342 343 202 
566 343 344 203 
2 91 2 4
567 66 205 65 
568 176 205 66 
569 205 67 82 
570 176 67 205 
2 92 2 4
571 86 177 68 
572 206 87 69 
573 206 69 177 
574 206 177 86 
2 93 2 2
575 70 69 88 
576 88 69 87 
2 94 2 4
577 207 70 88 
578 178 70 207 
579 71 207 89 
580 71 178 207 
2 95 2 4
581 208 71 89 
582 179 71 208 
583 72 208 90 
584 72 179 208 
2 96 2 2
585 73 72 91 
586 91 72 90 
2 97 2 4
587 91 180 73 
588 180 92 74 
589 209 180 91 
590 209 92 180 
2 98 2 4
591 92 181 74 
592 181 93 75 
593 210 181 92 
594 210 93 181 
2 99 2 4
595 93 182 75 
596 182 94 76 
597 211 182 93 
598 211 94 182 
2 100 2 2
599 77 76 95 
600 95 76 94 
2 101 2 4
601 77 95 212 
602 77 212 183 
603 183 96 78 
604 183 212 96 
2 102 2 4
605 78 96 213 
606 78 213 184 
607 184 97 79 
608 184 213 97 
2 103 2 2
609 80 79 98 
610 98 79 97 
2 104 2 4
611 98 185 80 
612 185 99 81 
613 214 185 98 
614 214 99 185 
2 105 2 4
615 186 86 68 
616 99 186 81 
617 186 215 86 
618 215 186 99 
2 106 2 34
619 187 64 353 
620 64 195 353 
621 82 193 352 
622 223 82 352 
623 195 84 353 
624 84 216 353 
625 222 100 352 
626 100 223 352 
627 188 187 349 
628 349 187 353 
629 189 188 347 
630 347 188 349 
631 190 189 346 
632 346 189 347 
633 191 190 348 
634 190 346 348 
635 192 191 350 
636 191 348 350 
637 193 192 351 
638 192 350 351 
639 193 351 352 
640 216 217 349 
641 216 349 353 
642 217 218 347 
643 217 347 349 
644 218 219 346 
645 218 346 347 
646 219 220 348 
647 346 219 348 
648 220 221 350 
649 348 220 350 
650 221 222 351 
651 350 221 351 
652 351 222 352 
2 107 2 38
653 83 360 196 
654 197 360 83 
655 196 363 84 
656 84 363 216 
657 85 362 203 
658 224 362 85 
659 222 361 100 
660 100 361 224 
661 360 363 196 
662 198 357 197 
663 357 360 197 
664 199 354 198 
665 354 357 198 
666 200 358 199 
667 199 358 354 
668 201 355 200 
669 355 358 200 
670 202 359 201 
671 201 359 355 
672 203 356 202 
673 356 359 202 
674 203 362 356 
675 216 357 217 
676 216 363 357 
677 217 354 218 
678 217 357 354 
679 218 358 219 
680 354 358 218 
681 219 355 220 
682 219 358 355 
683 220 359 221 
684 355 359 220 
685 221 356 222 
686 221 359 356 
687 356 361 222 
688 361 362 224 
689 356 362 361 
690 357 363 360 
2 108 2 12
691 204 65 366 
692 65 205 366 
693 205 82 365 
694 82 223 365 
695 85 204 364 
696 224 85 364 
697 223 100 365 
698 100 224 365 
699 364 204 366 
700 205 365 366 
701 224 364 365 
702 365 364 366 
2 109 2 54
703 9 10 33 
704 9 33 35 
705 9 35 97 
706 97 101 9 
707 10 88 33 
708 102 88 10 
709 212 11 96 
710 11 213 96 
711 213 11 101 
712 212 103 11 
713 207 12 89 
714 89 12 208 
715 12 207 102 
716 104 208 12 
717 14 13 37 
718 13 41 37 
719 41 13 95 
720 95 13 103 
721 90 14 37 
722 14 90 104 
723 86 21 22 
724 21 215 25 
725 86 215 21 
726 29 206 22 
727 206 86 22 
728 25 99 26 
729 215 99 25 
730 214 31 26 
731 99 214 26 
732 87 29 33 
733 206 29 87 
734 35 31 98 
735 98 31 214 
736 88 87 33 
737 97 35 98 
738 38 91 37 
739 91 90 37 
740 45 209 38 
741 209 91 38 
742 42 41 94 
743 94 41 95 
744 47 42 211 
745 211 42 94 
746 45 49 92 
747 209 45 92 
748 51 47 93 
749 93 47 211 
750 49 51 210 
751 92 49 210 
752 210 51 93 
753 102 207 88 
754 104 90 208 
755 95 103 212 
756 213 101 97 
2 110 2 60
757 61 154 86 
758 155 61 86 
759 99 154 64 
760 187 99 64 
761 161 92 65 
762 65 92 205 
763 82 93 193 
764 93 82 205 
765 154 215 86 
766 206 155 86 
767 87 88 374 
768 157 156 87 
769 156 206 87 
770 157 87 374 
771 88 207 374 
772 158 89 367 
773 89 158 373 
774 207 89 373 
775 89 208 367 
776 90 91 368 
777 208 90 368 
778 91 160 159 
779 91 159 368 
780 91 209 160 
781 209 92 161 
782 92 210 205 
783 93 211 193 
784 210 93 205 
785 94 95 372 
786 94 191 192 
787 191 94 372 
788 211 94 192 
789 95 212 372 
790 190 96 369 
791 96 190 371 
792 212 96 371 
793 96 213 369 
794 97 98 370 
795 213 97 370 
796 188 189 98 
797 188 98 214 
798 98 189 370 
799 154 99 215 
800 99 187 214 
801 156 155 206 
802 158 157 373 
803 373 157 374 
804 159 158 367 
805 159 367 368 
806 209 161 160 
807 187 188 214 
808 189 190 369 
809 189 369 370 
810 190 191 371 
811 371 191 372 
812 211 192 193 
813 207 373 374 
814 367 208 368 
815 212 371 372 
816 369 213 370 
3 7 4 24
817 14 106 18 19 
818 101 15 9 10 
819 103 17 107 20 
820 17 104 12 103 
821 19 13 106 107 
822 19 106 13 14 
823 104 13 106 14 
824 15 16 101 108 
825 15 101 16 10 
826 102 16 101 10 
827 13 103 106 107 
828 13 106 103 104 
829 17 106 103 107 
830 17 103 106 104 
831 108 105 11 20 
832 12 105 11 102 
833 103 17 11 12 
834 103 11 17 20 
835 105 11 17 12 
836 105 17 11 20 
837 11 101 105 108 
838 11 105 101 102 
839 16 105 101 108 
840 16 101 105 102 
3 10 4 180
841 367 166 327 158 
842 327 367 158 71 
843 373 165 71 333 
844 77 372 212 332 
845 368 72 208 328 
846 164 69 334 374 
847 371 78 183 331 
848 373 71 207 333 
849 213 329 78 369 
850 86 68 154 62 
851 67 93 205 75 
852 99 63 154 81 
853 158 166 327 165 
854 367 166 158 159 
855 172 171 189 329 
856 173 190 191 371 
857 158 157 165 373 
858 89 158 367 71 
859 369 78 96 190 
860 190 78 96 371 
861 89 373 158 71 
862 327 158 165 71 
863 165 373 71 158 
864 74 66 168 92 
865 63 81 99 169 
866 193 192 211 182 
867 155 177 156 206 
868 156 69 164 87 
869 73 91 167 166 
870 94 174 191 76 
871 334 207 70 178 
872 372 77 212 95 
873 72 368 208 90 
874 72 208 328 179 
875 212 77 332 183 
876 97 184 213 370 
877 153 154 68 62 
878 75 67 176 205 
879 63 154 81 153 
880 171 98 330 80 
881 76 191 94 372 
882 87 164 374 69 
883 333 207 178 71 
884 183 96 371 212 
885 329 213 78 184 
886 156 177 162 163 
887 160 180 167 168 
888 175 192 182 174 
889 156 69 163 164 
890 164 156 87 157 
891 173 191 174 76 
892 188 171 98 189 
893 166 91 167 159 
894 91 160 167 159 
895 191 192 174 94 
896 188 169 187 214 
897 193 192 182 175 
898 155 177 162 156 
899 187 63 99 169 
900 159 166 91 368 
901 87 164 157 374 
902 96 183 371 78 
903 71 373 207 89 
904 213 78 96 369 
905 71 208 367 89 
906 61 86 154 62 
907 205 66 92 65 
908 93 67 205 82 
909 63 99 154 64 
910 370 184 329 330 
911 208 328 367 368 
912 372 332 371 212 
913 334 207 333 374 
914 65 168 92 161 
915 183 371 331 332 
916 213 370 329 369 
917 373 207 374 333 
918 168 65 92 66 
919 192 182 94 211 
920 180 160 91 209 
921 156 177 69 206 
922 193 67 93 82 
923 155 62 86 61 
924 99 64 63 187 
925 206 69 156 87 
926 174 94 182 76 
927 167 180 91 73 
928 214 169 99 185 
929 185 169 99 81 
930 168 92 180 74 
931 211 93 193 182 
932 177 155 86 206 
933 166 368 367 328 
934 374 334 164 333 
935 166 328 367 327 
936 370 329 369 189 
937 331 371 173 332 
938 186 86 154 215 
939 181 205 92 210 
940 205 93 210 181 
941 99 186 154 215 
942 177 156 69 163 
943 94 174 182 192 
944 160 180 91 167 
945 169 214 99 187 
946 207 334 333 178 
947 184 370 329 213 
948 183 371 332 212 
949 76 332 372 77 
950 368 166 367 159 
951 72 91 368 90 
952 77 372 76 95 
953 330 98 79 80 
954 374 69 88 87 
955 94 76 372 95 
956 86 186 154 68 
957 75 93 205 181 
958 186 99 154 81 
959 154 153 68 186 
960 176 75 205 181 
961 81 154 186 153 
962 78 369 172 190 
963 78 172 369 329 
964 189 172 369 190 
965 189 369 172 329 
966 331 78 190 371 
967 190 78 331 172 
968 190 173 331 371 
969 331 173 190 172 
970 333 374 157 164 
971 157 374 333 373 
972 157 165 333 164 
973 333 165 157 373 
974 330 98 97 79 
975 97 98 330 370 
976 97 184 330 79 
977 330 184 97 370 
978 69 374 70 334 
979 69 70 374 88 
980 207 70 374 334 
981 207 374 70 88 
982 328 72 91 368 
983 91 72 328 73 
984 91 166 328 368 
985 328 166 91 73 
986 370 329 171 330 
987 171 329 370 189 
988 171 98 370 330 
989 370 98 171 189 
990 371 332 191 173 
991 371 191 332 372 
992 76 191 332 173 
993 76 332 191 372 
994 327 71 208 367 
995 208 71 327 179 
996 208 328 327 367 
997 327 328 208 179 
998 181 74 205 176 
999 181 205 74 92 
1000 66 205 74 176 
1001 66 74 205 92 
1002 188 98 185 214 
1003 188 169 185 170 
1004 185 169 188 214 
1005 182 75 193 175 
1006 182 193 75 93 
1007 67 193 75 175 
1008 67 75 193 93 
1009 177 68 155 162 
1010 177 155 68 86 
1011 62 155 68 162 
1012 62 68 155 86 
1013 92 209 168 180 
1014 92 168 209 161 
1015 160 168 209 180 
1016 160 209 168 161 
1017 80 185 188 98 
1018 188 185 80 170 
1019 188 171 80 98 
1020 80 171 188 170 
3 11 4 367
1021 212 96 371 379 
1022 207 89 373 377 
1023 89 208 367 355 
1024 358 213 96 369 
1025 96 348 371 379 
1026 89 367 341 355 
1027 369 96 358 346 
1028 373 339 358 89 
1029 96 346 348 355 
1030 207 12 89 377 
1031 212 11 96 379 
1032 358 339 341 89 
1033 358 373 89 377 
1034 12 208 89 355 
1035 358 339 373 377 
1036 11 358 213 96 
1037 346 96 358 355 
1038 89 341 358 355 
1039 102 101 11 377 
1040 12 103 104 379 
1041 102 11 12 377 
1042 103 12 11 379 
1043 12 208 355 379 
1044 11 213 358 377 
1045 358 11 12 355 
1046 11 358 96 355 
1047 89 358 12 355 
1048 11 12 355 379 
1049 12 11 358 377 
1050 11 355 96 379 
1051 358 89 12 377 
1052 96 355 348 379 
1053 208 368 367 379 
1054 370 369 213 377 
1055 367 368 341 379 
1056 370 346 369 377 
1057 367 341 158 89 
1058 190 346 96 369 
1059 348 371 190 96 
1060 339 158 89 373 
1061 346 219 348 355 
1062 339 200 358 341 
1063 372 212 371 379 
1064 374 207 373 377 
1065 372 371 348 379 
1066 339 374 373 377 
1067 346 358 219 355 
1068 341 200 358 355 
1069 341 158 89 339 
1070 348 190 346 96 
1071 342 341 368 379 
1072 347 346 370 377 
1073 21 337 215 375 
1074 366 49 210 376 
1075 86 21 22 375 
1076 92 45 49 376 
1077 47 93 51 376 
1078 26 25 99 375 
1079 91 37 38 380 
1080 31 98 35 378 
1081 341 367 159 368 
1082 370 346 189 369 
1083 191 371 348 372 
1084 374 339 373 157 
1085 350 372 348 379 
1086 340 374 339 377 
1087 87 29 33 378 
1088 94 42 41 380 
1089 339 340 157 374 
1090 350 191 348 372 
1091 346 370 189 347 
1092 342 159 368 341 
1093 21 215 25 375 
1094 49 51 210 376 
1095 201 355 341 379 
1096 201 341 342 379 
1097 86 337 21 375 
1098 92 49 366 376 
1099 218 358 346 377 
1100 347 218 346 377 
1101 214 26 99 375 
1102 209 45 92 376 
1103 211 93 47 376 
1104 206 86 22 375 
1105 98 347 370 377 
1106 91 342 368 379 
1107 339 358 199 377 
1108 348 355 220 379 
1109 31 214 98 378 
1110 94 211 42 380 
1111 91 38 209 380 
1112 87 206 29 378 
1113 349 98 214 378 
1114 351 211 94 380 
1115 91 209 343 380 
1116 87 338 206 378 
1117 349 347 98 378 
1118 338 87 340 378 
1119 91 343 342 380 
1120 350 351 94 380 
1121 342 202 359 380 
1122 347 354 377 378 
1123 347 217 354 378 
1124 202 342 343 380 
1125 337 86 21 215 
1126 210 49 366 92 
1127 47 45 227 376 
1128 26 225 22 375 
1129 51 93 210 365 
1130 99 336 25 215 
1131 188 349 98 214 
1132 94 211 351 192 
1133 209 91 343 160 
1134 338 87 206 156 
1135 353 214 187 99 
1136 344 209 161 92 
1137 211 352 193 93 
1138 206 345 155 86 
1139 339 199 340 377 
1140 351 356 376 380 
1141 338 357 375 378 
1142 340 377 354 378 
1143 348 220 350 379 
1144 347 349 217 378 
1145 214 99 353 375 
1146 211 352 93 376 
1147 344 209 92 376 
1148 206 345 86 375 
1149 91 368 90 379 
1150 98 370 97 377 
1151 350 379 221 380 
1152 359 379 342 380 
1153 222 351 356 376 
1154 338 357 197 375 
1155 347 377 98 378 
1156 91 342 379 380 
1157 353 363 216 375 
1158 203 344 362 376 
1159 351 376 211 380 
1160 209 376 343 380 
1161 214 375 349 378 
1162 338 375 206 378 
1163 87 374 340 377 
1164 350 94 372 379 
1165 222 356 361 376 
1166 197 357 360 375 
1167 338 87 156 340 
1168 349 347 188 98 
1169 351 192 350 94 
1170 343 160 91 342 
1171 351 350 221 380 
1172 338 340 198 378 
1173 340 354 198 378 
1174 201 359 355 379 
1175 87 377 340 378 
1176 350 94 379 380 
1177 203 362 356 376 
1178 357 216 363 375 
1179 201 342 359 379 
1180 347 354 218 377 
1181 336 25 215 375 
1182 365 210 51 376 
1183 344 343 209 376 
1184 214 353 349 375 
1185 211 351 352 376 
1186 206 338 345 375 
1187 86 345 337 375 
1188 92 366 344 376 
1189 357 338 198 378 
1190 351 221 356 380 
1191 359 221 379 380 
1192 341 201 200 355 
1193 365 51 93 376 
1194 25 336 99 375 
1195 361 223 365 100 
1196 200 199 339 358 
1197 354 347 218 217 
1198 354 358 218 377 
1199 348 220 355 219 
1200 361 223 352 365 
1201 218 219 346 358 
1202 86 194 337 345 
1203 92 204 344 366 
1204 201 342 202 359 
1205 361 223 100 352 
1206 366 364 344 376 
1207 337 345 335 375 
1208 87 88 374 377 
1209 94 95 372 379 
1210 22 21 25 375 
1211 45 51 49 376 
1212 352 351 222 376 
1213 197 345 338 375 
1214 90 368 208 379 
1215 97 370 213 377 
1216 353 357 216 349 
1217 198 197 338 357 
1218 221 351 356 222 
1219 367 341 159 158 
1220 346 189 369 190 
1221 371 191 348 190 
1222 339 157 158 373 
1223 207 374 88 377 
1224 212 372 95 379 
1225 189 98 347 370 
1226 91 342 159 368 
1227 340 87 157 374 
1228 191 350 94 372 
1229 355 359 220 379 
1230 354 199 358 377 
1231 336 215 337 375 
1232 366 210 365 376 
1233 365 93 223 352 
1234 195 336 353 99 
1235 38 37 41 380 
1236 31 35 33 378 
1237 354 340 199 377 
1238 357 349 353 375 
1239 202 343 356 380 
1240 84 195 336 363 
1241 356 359 202 380 
1242 357 353 216 375 
1243 352 222 361 376 
1244 197 360 345 375 
1245 345 83 335 360 
1246 343 376 356 380 
1247 349 375 357 378 
1248 357 354 217 378 
1249 363 195 336 353 
1250 194 61 345 86 
1251 223 82 352 93 
1252 64 195 353 99 
1253 65 204 344 92 
1254 196 360 336 335 
1255 359 356 221 380 
1256 214 353 187 349 
1257 209 344 161 343 
1258 352 211 193 351 
1259 345 206 155 338 
1260 365 224 364 376 
1261 357 217 349 378 
1262 343 160 161 209 
1263 192 351 193 211 
1264 188 349 214 187 
1265 155 338 206 156 
1266 344 364 362 376 
1267 360 335 345 375 
1268 354 199 340 198 
1269 357 198 354 378 
1270 365 93 352 376 
1271 353 99 336 375 
1272 87 340 157 156 
1273 98 189 347 188 
1274 350 191 94 192 
1275 342 91 159 160 
1276 352 82 193 93 
1277 61 345 86 155 
1278 344 65 92 161 
1279 64 353 187 99 
1280 360 336 335 375 
1281 364 204 366 344 
1282 194 345 335 337 
1283 100 365 361 224 
1284 61 194 337 86 
1285 65 204 92 366 
1286 360 196 336 363 
1287 10 9 101 377 
1288 104 13 14 379 
1289 13 104 103 379 
1290 10 101 102 377 
1291 202 343 203 356 
1292 353 84 363 195 
1293 336 84 363 196 
1294 360 83 335 196 
1295 216 217 349 357 
1296 85 344 364 362 
1297 82 365 93 223 
1298 195 64 336 99 
1299 363 336 360 375 
1300 204 85 344 364 
1301 194 83 335 345 
1302 33 35 9 378 
1303 13 41 37 380 
1304 337 335 336 375 
1305 365 364 366 376 
1306 352 361 365 376 
1307 22 25 26 375 
1308 45 47 51 376 
1309 363 353 336 375 
1310 365 361 224 376 
1311 82 365 205 93 
1312 64 336 99 154 
1313 205 210 93 365 
1314 99 154 336 215 
1315 364 362 224 85 
1316 365 366 205 210 
1317 336 337 215 154 
1318 33 29 31 378 
1319 38 41 42 380 
1320 85 344 362 203 
1321 362 361 356 376 
1322 360 357 363 375 
1323 61 154 86 337 
1324 92 65 366 205 
1325 154 86 337 215 
1326 92 366 210 205 
1327 9 377 10 378 
1328 14 379 13 380 
1329 345 83 360 197 
1330 353 84 216 363 
1331 352 100 361 222 
1332 37 14 13 380 
1333 33 9 10 378 
1334 102 88 10 377 
1335 101 213 11 377 
1336 101 9 97 377 
1337 207 88 102 377 
1338 12 207 102 377 
1339 213 101 97 377 
1340 103 95 13 379 
1341 12 104 208 379 
1342 14 90 104 379 
1343 95 103 212 379 
1344 103 11 212 379 
1345 208 104 90 379 
1346 377 369 358 346 
1347 377 358 369 213 
1348 367 379 355 208 
1349 355 379 367 341 
1350 206 29 375 22 
1351 206 375 29 378 
1352 225 375 29 22 
1353 31 214 375 26 
1354 375 214 31 378 
1355 375 225 31 26 
1356 38 209 376 45 
1357 376 209 38 380 
1358 376 227 38 45 
1359 211 42 376 47 
1360 211 376 42 380 
1361 227 376 42 47 
1362 379 91 37 90 
1363 37 91 379 380 
1364 37 14 379 90 
1365 379 14 37 380 
1366 9 377 35 97 
1367 9 35 377 378 
1368 98 35 377 97 
1369 98 377 35 378 
1370 221 379 220 359 
1371 220 379 221 350 
1372 224 376 362 364 
1373 362 376 224 361 
1374 33 87 377 88 
1375 377 87 33 378 
1376 377 10 33 88 
1377 33 10 377 378 
1378 13 41 379 95 
1379 13 379 41 380 
1380 94 379 41 95 
1381 94 41 379 380 
1382 376 203 343 356 
1383 376 343 203 344 
1384 375 29 31 225 
1385 375 31 29 378 
1386 38 376 42 227 
1387 42 376 38 380 
3 12 4 6
1388 28 21 22 24 
1389 21 28 22 25 
1390 22 27 28 23 
1391 22 23 28 24 
1392 27 22 28 26 
1393 28 22 25 26 
3 13 4 25
1394 30 225 29 2 
1395 225 30 29 31 
1396 225 30 3 2 
1397 23 30 1 226 
1398 225 1 29 2 
1399 4 2 1 225 
1400 1 225 29 22 
1401 32 27 4 226 
1402 2 3 225 4 
1403 4 31 225 26 
1404 4 31 3 225 
1405 3 31 30 225 
1406 3 30 31 32 
1407 23 27 1 22 
1408 23 1 27 226 
1409 32 30 4 3 
1410 32 4 30 226 
1411 2 4 30 3 
1412 30 1 4 2 
1413 30 4 1 226 
1414 1 4 27 226 
1415 22 225 27 1 
1416 22 27 225 26 
1417 4 27 225 1 
1418 4 225 27 26 
3 14 4 6
1419 35 32 34 36 
1420 33 32 30 34 
1421 32 33 35 34 
1422 33 32 35 31 
1423 31 30 33 32 
1424 30 31 33 29 
3 15 4 6
1425 44 38 40 37 
1426 41 38 44 37 
1427 38 44 39 43 
1428 44 38 39 40 
1429 42 44 38 43 
1430 44 42 38 41 
3 16 4 25
1431 43 227 42 8 
1432 6 46 45 227 
1433 43 227 38 42 
1434 227 46 45 47 
1435 6 7 228 46 
1436 6 7 46 227 
1437 8 7 6 227 
1438 7 42 227 8 
1439 43 227 8 5 
1440 6 8 227 5 
1441 42 7 227 47 
1442 48 43 7 228 
1443 6 38 5 227 
1444 45 38 6 227 
1445 6 228 39 46 
1446 7 46 48 228 
1447 38 5 43 39 
1448 38 43 5 227 
1449 47 7 46 48 
1450 47 46 7 227 
1451 8 6 43 5 
1452 39 43 6 5 
1453 39 6 43 228 
1454 43 7 6 8 
1455 43 6 7 228 
3 17 4 6
1456 46 49 51 50 
1457 51 48 50 52 
1458 46 51 48 50 
1459 49 46 51 45 
1460 46 51 47 48 
1461 51 45 46 47 
3 18 4 1137
1462 240 30 34 264 
1463 179 239 255 328 
1464 327 255 179 385 
1465 327 179 71 385 
1466 300 331 183 385 
1467 179 239 328 384 
1468 183 332 284 384 
1469 285 303 27 312 
1470 240 267 23 258 
1471 52 313 325 323 
1472 179 270 255 384 
1473 256 253 46 268 
1474 255 270 179 385 
1475 313 301 298 48 
1476 312 231 28 233 
1477 15 36 34 383 
1478 355 316 238 358 
1479 358 316 283 355 
1480 180 253 46 256 
1481 300 183 284 384 
1482 262 255 239 328 
1483 271 278 277 313 
1484 182 298 301 48 
1485 268 74 50 325 
1486 303 27 185 285 
1487 312 272 279 276 
1488 177 240 23 258 
1489 357 310 360 363 
1490 69 334 70 383 
1491 255 239 179 384 
1492 316 283 355 315 
1493 316 355 238 315 
1494 356 361 362 266 
1495 69 70 34 383 
1496 52 75 313 323 
1497 184 330 383 385 
1498 182 43 301 308 
1499 316 318 354 287 
1500 359 293 317 315 
1501 334 383 259 385 
1502 43 44 39 384 
1503 40 39 44 384 
1504 317 359 315 248 
1505 354 242 318 316 
1506 358 316 287 283 
1507 359 355 283 315 
1508 316 358 242 238 
1509 270 300 284 384 
1510 315 359 355 238 
1511 69 259 334 383 
1512 360 320 310 357 
1513 320 360 265 357 
1514 356 319 361 266 
1515 319 361 311 356 
1516 287 318 354 286 
1517 34 240 264 383 
1518 69 34 264 383 
1519 310 232 360 363 
1520 304 383 330 385 
1521 68 24 233 258 
1522 283 293 359 315 
1523 318 241 242 354 
1524 359 315 248 238 
1525 361 324 362 266 
1526 239 255 270 384 
1527 284 275 270 384 
1528 303 231 28 312 
1529 313 326 325 323 
1530 304 80 330 383 
1531 30 240 177 264 
1532 43 301 308 384 
1533 309 285 32 383 
1534 259 254 334 385 
1535 108 15 16 383 
1536 16 105 108 383 
1537 231 312 234 233 
1538 185 32 309 285 
1539 360 320 232 310 
1540 34 16 15 383 
1541 330 299 304 385 
1542 320 265 360 232 
1543 324 361 319 266 
1544 233 231 24 68 
1545 319 311 361 324 
1546 105 108 383 385 
1547 325 74 50 323 
1548 265 241 320 357 
1549 320 241 318 357 
1550 311 293 319 356 
1551 286 310 320 357 
1552 270 275 239 384 
1553 360 251 265 357 
1554 286 320 318 357 
1555 293 317 319 356 
1556 333 334 254 385 
1557 16 34 70 383 
1558 333 178 334 385 
1559 359 317 293 248 
1560 248 315 317 122 
1561 293 146 317 315 
1562 181 52 50 323 
1563 231 28 24 186 
1564 77 332 183 384 
1565 81 231 28 303 
1566 293 356 359 248 
1567 304 282 383 385 
1568 179 328 72 384 
1569 300 139 270 284 
1570 329 299 330 385 
1571 311 361 297 356 
1572 356 293 317 248 
1573 327 71 260 385 
1574 327 260 255 385 
1575 329 330 184 385 
1576 146 293 283 315 
1577 122 248 315 238 
1578 259 273 237 385 
1579 332 76 284 384 
1580 273 383 282 385 
1581 331 300 305 385 
1582 139 275 270 284 
1583 357 296 310 363 
1584 287 316 318 144 
1585 318 287 144 286 
1586 318 242 120 316 
1587 270 132 255 239 
1588 259 383 273 385 
1589 274 273 282 385 
1590 241 242 120 318 
1591 315 316 121 238 
1592 145 283 316 315 
1593 259 69 334 254 
1594 80 304 330 299 
1595 259 237 254 385 
1596 69 264 259 383 
1597 283 316 287 145 
1598 242 121 316 238 
1599 332 77 76 384 
1600 241 265 251 357 
1601 274 137 282 273 
1602 299 282 304 385 
1603 239 270 132 275 
1604 252 356 362 266 
1605 130 237 259 273 
1606 81 28 27 303 
1607 68 23 24 258 
1608 283 219 358 355 
1609 237 273 274 385 
1610 264 30 34 69 
1611 239 73 328 384 
1612 200 358 355 238 
1613 333 254 237 385 
1614 240 259 264 383 
1615 44 18 40 384 
1616 268 127 74 325 
1617 131 255 237 385 
1618 293 311 297 356 
1619 274 237 130 273 
1620 270 255 131 385 
1621 270 138 300 385 
1622 308 182 43 76 
1623 282 299 329 385 
1624 75 151 313 323 
1625 219 358 287 283 
1626 358 200 242 238 
1627 263 73 39 180 
1628 80 304 309 383 
1629 266 248 317 123 
1630 44 76 77 384 
1631 282 300 138 385 
1632 73 72 328 384 
1633 270 274 138 385 
1634 274 270 131 385 
1635 317 319 266 123 
1636 76 284 308 332 
1637 263 239 73 328 
1638 320 143 310 286 
1639 220 293 359 283 
1640 131 237 274 385 
1641 284 301 140 384 
1642 355 283 220 359 
1643 30 33 34 69 
1644 286 218 354 287 
1645 230 360 232 363 
1646 248 201 359 238 
1647 276 128 267 240 
1648 326 313 151 323 
1649 238 359 355 201 
1650 106 18 19 384 
1651 107 106 19 384 
1652 298 151 313 75 
1653 333 260 71 385 
1654 134 268 256 277 
1655 309 304 285 383 
1656 143 320 318 286 
1657 287 218 354 358 
1658 282 138 274 385 
1659 293 147 311 319 
1660 231 312 117 234 
1661 127 74 253 268 
1662 68 233 112 258 
1663 128 276 272 240 
1664 310 114 232 363 
1665 310 286 296 357 
1666 199 241 354 242 
1667 278 271 141 313 
1668 284 76 308 384 
1669 256 134 277 271 
1670 260 237 255 385 
1671 73 40 72 384 
1672 358 242 199 354 
1673 147 293 317 319 
1674 272 135 312 279 
1675 361 311 148 324 
1676 271 140 301 384 
1677 148 322 361 324 
1678 271 141 313 301 
1679 275 284 140 384 
1680 284 308 301 384 
1681 265 241 119 320 
1682 230 232 114 363 
1683 218 286 354 217 
1684 135 312 285 272 
1685 333 237 260 385 
1686 312 303 231 117 
1687 271 256 133 384 
1688 305 300 282 385 
1689 324 322 361 362 
1690 318 119 241 320 
1691 81 231 303 117 
1692 307 308 284 332 
1693 239 263 262 328 
1694 252 248 356 266 
1695 233 267 112 258 
1696 129 240 272 383 
1697 265 109 251 360 
1698 329 305 282 385 
1699 73 239 263 384 
1700 18 44 19 384 
1701 81 27 185 303 
1702 180 46 253 74 
1703 24 22 86 21 
1704 275 140 271 384 
1705 118 232 320 310 
1706 23 68 177 258 
1707 129 259 240 383 
1708 311 297 361 148 
1709 40 38 91 37 
1710 231 233 112 68 
1711 325 127 74 323 
1712 241 199 354 198 
1713 136 304 137 383 
1714 241 197 357 251 
1715 182 75 298 48 
1716 152 60 311 324 
1717 232 118 56 310 
1718 333 71 178 385 
1719 22 24 86 23 
1720 272 128 240 129 
1721 44 43 42 76 
1722 38 40 91 39 
1723 329 282 305 299 
1724 333 237 254 260 
1725 152 311 319 324 
1726 130 237 274 131 
1727 265 109 360 232 
1728 256 239 133 384 
1729 139 270 138 300 
1730 319 152 266 57 
1731 134 256 133 271 
1732 354 241 198 357 
1733 56 118 320 310 
1734 318 144 143 286 
1735 293 222 221 356 
1736 264 177 30 69 
1737 93 48 47 51 
1738 26 25 28 99 
1739 293 222 356 297 
1740 327 260 165 262 
1741 331 305 307 172 
1742 239 275 133 384 
1743 41 76 44 42 
1744 114 310 296 363 
1745 201 248 359 202 
1746 221 293 356 359 
1747 122 317 248 123 
1748 119 241 120 318 
1749 319 152 324 266 
1750 24 23 68 86 
1751 263 239 256 384 
1752 241 197 198 357 
1753 271 133 275 384 
1754 68 231 24 186 
1755 362 324 124 266 
1756 185 32 80 309 
1757 293 146 147 317 
1758 327 255 260 262 
1759 331 300 307 305 
1760 40 39 73 91 
1761 217 286 354 357 
1762 136 137 273 383 
1763 266 152 324 57 
1764 124 252 362 266 
1765 319 60 311 152 
1766 284 139 275 140 
1767 53 233 276 267 
1768 293 220 359 221 
1769 181 50 74 323 
1770 242 199 200 358 
1771 325 268 58 277 
1772 182 301 298 308 
1773 263 253 180 256 
1774 358 287 218 219 
1775 146 283 145 315 
1776 122 315 121 238 
1777 282 138 137 274 
1778 239 132 133 275 
1779 232 56 114 310 
1780 60 148 311 324 
1781 304 136 285 383 
1782 270 132 131 255 
1783 144 287 316 145 
1784 242 121 120 316 
1785 278 142 277 326 
1786 234 279 113 276 
1787 248 203 356 202 
1788 44 77 19 384 
1789 83 230 360 109 
1790 216 286 357 296 
1791 356 359 248 202 
1792 18 72 40 384 
1793 251 83 360 109 
1794 129 273 259 383 
1795 216 353 349 280 
1796 141 271 140 301 
1797 136 272 285 383 
1798 69 259 264 254 
1799 80 304 299 309 
1800 320 143 56 310 
1801 232 320 54 118 
1802 136 135 285 272 
1803 129 130 259 273 
1804 238 355 200 201 
1805 216 286 217 357 
1806 248 203 252 356 
1807 322 85 362 124 
1808 123 319 266 57 
1809 231 62 68 112 
1810 66 323 74 127 
1811 220 219 283 355 
1812 233 234 113 276 
1813 325 277 142 326 
1814 277 58 325 142 
1815 113 233 276 53 
1816 240 177 264 258 
1817 309 303 185 285 
1818 267 53 233 112 
1819 127 268 58 325 
1820 320 54 265 232 
1821 305 172 329 171 
1822 165 260 333 164 
1823 67 298 75 151 
1824 86 23 68 177 
1825 182 93 75 48 
1826 232 109 360 230 
1827 180 91 73 39 
1828 129 272 273 383 
1829 222 297 361 356 
1830 297 100 361 148 
1831 360 197 251 357 
1832 75 52 181 323 
1833 253 66 74 127 
1834 265 119 54 320 
1835 230 83 360 196 
1836 100 322 361 148 
1837 234 312 55 279 
1838 62 231 68 153 
1839 323 66 74 176 
1840 41 76 42 94 
1841 81 28 231 186 
1842 327 260 71 165 
1843 135 55 312 279 
1844 323 67 75 151 
1845 63 231 81 117 
1846 326 278 59 313 
1847 305 171 329 299 
1848 164 260 333 254 
1849 197 338 345 235 
1850 165 260 71 333 
1851 324 322 362 124 
1852 59 278 141 313 
1853 55 117 312 234 
1854 85 252 362 124 
1855 313 59 326 151 
1856 253 167 180 168 
1857 85 322 362 224 
1858 276 128 53 267 
1859 147 60 311 319 
1860 134 58 268 277 
1861 329 299 171 330 
1862 333 254 334 164 
1863 167 253 180 263 
1864 303 63 81 117 
1865 109 265 54 232 
1866 136 273 272 383 
1867 84 296 363 114 
1868 230 84 363 114 
1869 165 327 262 166 
1870 307 172 173 331 
1871 62 258 68 112 
1872 171 170 80 299 
1873 163 164 69 254 
1874 185 214 26 99 
1875 92 180 45 209 
1876 324 124 266 57 
1877 279 55 234 113 
1878 326 278 142 59 
1879 67 323 75 176 
1880 231 63 81 153 
1881 80 299 170 309 
1882 264 254 163 69 
1883 264 162 177 163 
1884 169 309 185 170 
1885 299 171 330 80 
1886 164 254 334 69 
1887 298 67 75 175 
1888 66 253 74 168 
1889 308 174 182 76 
1890 73 263 167 180 
1891 63 303 81 169 
1892 258 62 68 162 
1893 303 185 81 169 
1894 162 177 68 258 
1895 216 296 357 363 
1896 356 362 203 252 
1897 83 251 360 197 
1898 322 100 361 224 
1899 252 85 362 203 
1900 17 71 208 179 
1901 12 178 207 71 
1902 183 96 212 20 
1903 253 168 180 74 
1904 75 298 175 182 
1905 84 230 363 196 
1906 296 84 363 216 
1907 178 12 17 71 
1908 12 71 208 17 
1909 20 11 96 212 
1910 100 297 361 222 
1911 68 153 231 186 
1912 181 74 176 323 
1913 162 264 177 258 
1914 309 169 185 303 
1915 183 96 20 78 
1916 71 12 208 89 
1917 89 12 207 71 
1918 181 92 49 210 
1919 51 210 93 181 
1920 177 264 163 69 
1921 185 80 170 309 
1922 327 262 166 328 
1923 173 307 331 332 
1924 181 176 75 323 
1925 231 153 81 186 
1926 26 27 4 185 
1927 45 46 6 180 
1928 361 322 224 362 
1929 86 24 186 68 
1930 186 99 81 28 
1931 230 196 360 363 
1932 180 6 45 209 
1933 214 26 4 185 
1934 34 35 9 33 
1935 44 37 13 41 
1936 91 73 40 72 
1937 88 69 33 87 
1938 95 76 41 94 
1939 14 44 37 13 
1940 9 10 34 33 
1941 96 20 78 382 
1942 15 10 34 9 
1943 19 14 44 18 
1944 10 15 34 16 
1945 14 19 44 13 
1946 50 181 51 52 
1947 49 181 51 50 
1948 181 49 51 210 
1949 44 13 19 77 
1950 195 64 353 116 
1951 187 63 116 64 
1952 336 337 154 229 
1953 340 339 157 246 
1954 194 83 110 335 
1955 230 335 83 196 
1956 251 345 235 197 
1957 349 353 187 280 
1958 78 213 96 382 
1959 105 16 102 70 
1960 32 4 185 3 
1961 198 199 340 249 
1962 289 221 220 293 
1963 28 23 233 24 
1964 64 353 116 187 
1965 251 345 110 235 
1966 229 195 115 116 
1967 248 201 244 202 
1968 217 216 349 306 
1969 15 101 9 97 
1970 229 195 116 336 
1971 114 115 230 84 
1972 268 50 46 325 
1973 160 343 161 269 
1974 346 288 294 291 
1975 243 339 246 245 
1976 199 249 241 242 
1977 261 241 197 198 
1978 341 339 243 245 
1979 261 338 197 235 
1980 335 230 83 110 
1981 235 251 197 261 
1982 339 200 341 243 
1983 110 109 83 251 
1984 251 345 83 110 
1985 322 364 125 321 
1986 345 251 83 197 
1987 63 154 116 64 
1988 197 198 338 261 
1989 291 346 288 290 
1990 31 214 26 4 
1991 223 321 365 149 
1992 111 154 61 337 
1993 249 241 261 198 
1994 27 285 312 272 
1995 160 343 247 342 
1996 243 242 249 199 
1997 199 200 243 242 
1998 213 78 184 382 
1999 199 200 339 243 
2000 294 291 295 347 
2001 48 313 325 52 
2002 287 288 294 218 
2003 289 283 293 220 
2004 235 258 155 111 
2005 241 261 197 251 
2006 353 296 84 115 
2007 205 126 323 176 
2008 336 335 229 196 
2009 114 115 84 296 
2010 296 353 216 280 
2011 296 353 84 216 
2012 306 216 349 280 
2013 115 336 84 195 
2014 303 28 27 312 
2015 286 306 216 217 
2016 236 65 344 161 
2017 161 253 65 168 
2018 286 294 306 217 
2019 218 217 294 286 
2020 294 286 287 218 
2021 306 286 216 296 
2022 194 83 345 110 
2023 353 116 115 195 
2024 231 24 28 233 
2025 153 111 62 231 
2026 154 111 231 229 
2027 62 111 258 112 
2028 341 158 339 245 
2029 111 154 231 153 
2030 110 337 335 229 
2031 347 349 188 295 
2032 351 192 193 314 
2033 346 347 189 291 
2034 299 188 309 295 
2035 346 347 291 294 
2036 294 218 288 346 
2037 62 111 154 61 
2038 188 299 309 170 
2039 172 189 305 190 
2040 305 189 299 291 
2041 171 188 299 189 
2042 171 188 170 299 
2043 295 280 306 349 
2044 352 351 193 281 
2045 195 64 116 336 
2046 115 336 195 229 
2047 32 27 185 4 
2048 353 280 116 187 
2049 231 63 116 117 
2050 154 231 63 116 
2051 280 303 116 187 
2052 63 187 116 303 
2053 63 187 303 169 
2054 187 309 303 169 
2055 188 169 309 187 
2056 116 117 63 303 
2057 184 79 97 108 
2058 159 158 341 245 
2059 312 28 27 233 
2060 23 28 233 27 
2061 30 23 177 240 
2062 235 250 261 338 
2063 246 249 250 340 
2064 23 30 177 1 
2065 264 155 258 162 
2066 155 264 258 235 
2067 345 155 111 235 
2068 206 29 22 1 
2069 162 156 264 155 
2070 162 163 264 156 
2071 155 62 258 162 
2072 62 111 112 231 
2073 62 155 111 61 
2074 155 62 111 258 
2075 111 229 154 337 
2076 61 194 111 337 
2077 336 335 337 229 
2078 61 194 345 111 
2079 206 2 29 1 
2080 345 338 155 235 
2081 335 230 110 229 
2082 110 337 111 194 
2083 335 230 229 196 
2084 15 101 97 108 
2085 105 12 17 178 
2086 249 243 199 339 
2087 77 212 95 103 
2088 249 243 339 246 
2089 193 67 298 175 
2090 157 260 254 246 
2091 156 338 340 250 
2092 156 254 264 250 
2093 254 156 264 163 
2094 260 157 254 164 
2095 163 164 254 156 
2096 52 325 50 323 
2097 365 366 321 205 
2098 263 160 167 269 
2099 253 167 269 263 
2100 247 245 262 159 
2101 160 159 342 247 
2102 202 342 244 257 
2103 348 190 290 346 
2104 17 104 179 208 
2105 104 179 72 106 
2106 104 72 14 106 
2107 38 209 6 5 
2108 104 72 90 14 
2109 66 126 323 127 
2110 247 263 269 160 
2111 321 126 205 366 
2112 366 125 204 364 
2113 126 205 323 321 
2114 366 125 126 204 
2115 252 344 236 125 
2116 66 205 126 65 
2117 65 253 126 66 
2118 253 66 65 168 
2119 253 65 126 236 
2120 252 344 203 236 
2121 161 253 168 269 
2122 161 253 269 236 
2123 351 292 302 350 
2124 161 343 344 236 
2125 160 168 167 269 
2126 65 204 366 126 
2127 236 253 65 161 
2128 296 353 280 115 
2129 50 48 325 52 
2130 292 289 302 350 
2131 48 50 325 46 
2132 42 47 211 7 
2133 48 43 182 7 
2134 323 205 67 150 
2135 190 191 348 290 
2136 301 313 271 48 
2137 151 150 67 298 
2138 150 67 323 151 
2139 221 350 351 302 
2140 7 43 182 8 
2141 67 150 205 82 
2142 308 292 314 192 
2143 350 221 289 302 
2144 292 192 351 314 
2145 290 292 307 191 
2146 346 219 288 348 
2147 219 218 346 288 
2148 290 346 288 348 
2149 191 192 350 292 
2150 20 103 11 212 
2151 104 17 12 208 
2152 77 107 13 19 
2153 106 14 18 72 
2154 77 103 13 107 
2155 103 77 13 95 
2156 126 205 366 65 
2157 150 205 321 323 
2158 364 365 366 321 
2159 288 218 287 219 
2160 149 148 100 297 
2161 223 321 149 150 
2162 223 100 149 365 
2163 223 100 352 149 
2164 288 289 290 348 
2165 202 343 257 203 
2166 302 281 314 351 
2167 351 292 314 302 
2168 223 321 150 365 
2169 352 351 281 222 
2170 352 297 100 222 
2171 297 352 149 281 
2172 297 281 302 222 
2173 281 351 302 222 
2174 297 352 100 149 
2175 149 148 322 100 
2176 289 293 302 221 
2177 201 342 244 202 
2178 287 288 219 283 
2179 293 302 222 297 
2180 322 364 321 224 
2181 322 364 85 125 
2182 364 322 85 224 
2183 365 364 224 321 
2184 220 348 350 289 
2185 242 200 243 238 
2186 244 243 245 341 
2187 238 244 248 201 
2188 341 201 342 244 
2189 343 203 236 257 
2190 85 344 252 125 
2191 248 244 257 202 
2192 244 247 257 342 
2193 236 257 269 343 
2194 236 252 257 203 
2195 257 248 203 252 
2196 342 202 343 257 
2197 343 160 247 269 
2198 343 247 342 257 
2199 321 125 366 364 
2200 248 257 203 202 
2201 204 85 125 344 
2202 204 85 364 125 
2203 344 85 252 203 
2204 125 124 252 85 
2205 110 109 230 83 
2206 27 32 185 285 
2207 125 366 126 321 
2208 205 66 126 176 
2209 253 167 168 269 
2210 208 104 72 90 
2211 297 352 281 222 
2212 116 154 336 64 
2213 221 351 222 302 
2214 15 108 97 79 
2215 218 217 347 294 
2216 347 218 294 346 
2217 193 351 314 281 
2218 192 292 351 350 
2219 339 340 249 246 
2220 43 48 182 301 
2221 70 102 207 88 
2222 189 305 299 171 
2223 110 337 194 335 
2224 337 110 111 229 
2225 38 209 45 6 
2226 231 154 63 153 
2227 154 116 336 229 
2228 154 116 229 231 
2229 302 293 222 221 
2230 46 39 180 256 
2231 309 187 303 280 
2232 179 104 72 208 
2233 170 169 309 188 
2234 124 125 322 85 
2235 298 193 314 281 
2236 104 106 17 179 
2237 156 164 254 157 
2238 116 353 115 280 
2239 161 343 236 269 
2240 365 82 150 223 
2241 205 150 365 82 
2242 343 247 257 269 
2243 61 345 155 111 
2244 127 126 253 66 
2245 153 111 154 62 
2246 353 115 84 195 
2247 199 198 241 249 
2248 340 199 339 249 
2249 205 323 67 176 
2250 205 150 321 365 
2251 126 176 66 323 
2252 280 296 306 216 
2253 157 260 158 165 
2254 164 165 260 157 
2255 345 111 110 235 
2256 344 343 203 236 
2257 111 345 110 194 
2258 161 160 269 168 
2259 172 171 305 189 
2260 39 46 180 6 
2261 220 350 221 289 
2262 36 15 381 383 
2263 34 36 32 383 
2264 34 32 30 383 
2265 27 285 272 383 
2266 30 32 226 383 
2267 30 240 34 383 
2268 16 70 105 383 
2269 226 27 23 383 
2270 27 272 23 383 
2271 23 272 240 383 
2272 106 72 18 384 
2273 19 77 107 384 
2274 72 106 179 384 
2275 183 107 77 384 
2276 108 184 383 385 
2277 328 255 327 262 
2278 328 327 255 179 
2279 184 329 382 78 
2280 184 382 329 385 
2281 329 382 305 385 
2282 305 382 331 385 
2283 183 20 382 78 
2284 331 183 382 78 
2285 331 382 183 385 
2286 15 381 108 79 
2287 15 108 381 383 
2288 108 381 184 79 
2289 108 184 381 383 
2290 184 381 330 79 
2291 184 330 381 383 
2292 330 381 80 79 
2293 330 80 381 383 
2294 80 36 381 383 
2295 233 258 23 267 
2296 23 258 233 24 
2297 39 256 263 180 
2298 263 256 39 384 
2299 76 43 384 44 
2300 76 384 43 308 
2301 39 73 384 40 
2302 384 73 39 263 
2303 284 332 300 307 
2304 284 300 332 183 
2305 331 300 332 307 
2306 331 332 300 183 
2307 316 358 354 242 
2308 354 358 316 287 
2309 318 357 354 286 
2310 354 357 318 241 
2311 75 48 313 298 
2312 75 313 48 52 
2313 74 46 268 50 
2314 74 268 46 253 
2315 266 317 356 319 
2316 266 356 317 248 
2317 32 80 383 36 
2318 32 383 80 309 
2319 181 52 93 51 
2320 181 93 52 75 
2321 48 93 52 51 
2322 48 52 93 75 
2323 383 137 282 304 
2324 383 282 137 273 
2325 326 277 313 325 
2326 326 313 277 278 
2327 234 276 312 279 
2328 312 276 234 233 
2329 49 92 46 45 
2330 180 92 46 74 
2331 180 46 92 45 
2332 185 27 99 26 
2333 185 99 27 81 
2334 28 99 27 26 
2335 28 27 99 81 
2336 185 32 98 80 
2337 35 32 98 31 
2338 33 29 69 30 
2339 33 69 29 87 
2340 206 29 69 87 
2341 382 105 108 20 
2342 382 108 105 385 
2343 184 108 382 385 
2344 183 107 382 20 
2345 183 382 107 385 
2346 17 105 382 20 
2347 107 17 382 20 
2348 382 178 105 17 
2349 382 105 178 385 
2350 107 106 382 17 
2351 107 382 106 385 
2352 71 178 382 17 
2353 71 382 178 385 
2354 7 211 8 182 
2355 7 8 211 42 
2356 47 7 182 211 
2357 182 7 47 48 
2358 182 93 47 211 
2359 47 93 182 48 
2360 1 22 177 23 
2361 1 177 22 206 
2362 86 177 22 23 
2363 86 22 177 206 
2364 6 5 180 39 
2365 6 180 5 209 
2366 177 1 2 206 
2367 2 1 177 30 
2368 214 4 3 185 
2369 3 4 214 31 
2370 28 186 21 24 
2371 86 186 21 215 
2372 86 21 186 24 
2373 181 50 92 74 
2374 181 92 50 49 
2375 46 92 50 74 
2376 46 50 92 49 
2377 21 25 186 28 
2378 21 186 25 215 
2379 99 186 25 28 
2380 99 25 186 215 
2381 91 37 72 40 
2382 91 72 37 90 
2383 14 37 72 90 
2384 10 88 34 33 
2385 69 88 34 70 
2386 69 34 88 33 
2387 13 44 95 77 
2388 13 95 44 41 
2389 76 95 44 77 
2390 76 44 95 41 
2391 34 35 15 9 
2392 34 15 35 36 
2393 72 37 18 40 
2394 72 18 37 14 
2395 44 18 37 40 
2396 44 37 18 14 
2397 97 15 35 9 
2398 102 16 88 70 
2399 102 88 16 10 
2400 34 88 16 70 
2401 34 16 88 10 
2402 291 299 347 189 
2403 291 347 299 295 
2404 188 347 299 189 
2405 188 299 347 295 
2406 245 339 260 158 
2407 245 260 339 246 
2408 157 260 339 158 
2409 157 339 260 246 
2410 283 289 219 220 
2411 283 219 289 288 
2412 348 219 289 220 
2413 348 289 219 288 
2414 290 346 305 291 
2415 290 305 346 190 
2416 189 305 346 291 
2417 189 346 305 190 
2418 20 183 103 212 
2419 20 103 183 107 
2420 77 103 183 212 
2421 77 183 103 107 
2422 280 295 188 349 
2423 188 295 280 309 
2424 188 187 280 349 
2425 280 187 188 309 
2426 160 247 167 159 
2427 160 167 247 263 
2428 167 247 166 159 
2429 166 247 262 159 
2430 67 150 193 298 
2431 67 193 150 82 
2432 281 193 150 298 
2433 336 115 196 229 
2434 336 196 115 84 
2435 230 196 115 229 
2436 230 115 196 84 
2437 97 213 108 101 
2438 97 108 213 184 
2439 11 108 213 101 
2440 349 217 295 347 
2441 349 295 217 306 
2442 294 295 217 347 
2443 294 217 295 306 
2444 192 174 292 191 
2445 292 174 192 308 
2446 173 307 292 191 
2447 174 173 292 191 
2448 191 290 173 307 
2449 191 173 290 190 
2450 173 290 172 307 
2451 173 172 290 190 
2452 172 290 305 307 
2453 172 305 290 190 
2454 338 198 250 261 
2455 338 250 198 340 
2456 249 250 198 261 
2457 249 198 250 340 
2458 27 32 383 226 
2459 27 383 32 285 
2460 272 23 233 27 
2461 233 312 272 27 
2462 272 312 233 276 
2463 322 149 224 321 
2464 322 224 149 100 
2465 365 224 149 321 
2466 365 149 224 100 
2467 250 156 235 264 
2468 250 235 156 338 
2469 155 235 156 264 
2470 155 156 235 338 
2471 246 254 340 250 
2472 246 340 254 157 
2473 156 340 254 250 
2474 156 254 340 157 
2475 159 245 166 158 
2476 159 166 245 262 
2477 166 245 165 158 
2478 166 165 245 262 
2479 165 245 260 158 
2480 165 260 245 262 
2481 245 159 342 341 
2482 342 159 245 247 
2483 342 244 245 341 
2484 245 244 342 247 
2485 350 289 290 292 
2486 290 289 350 348 
2487 290 191 350 292 
2488 350 191 290 348 
2489 65 236 204 126 
2490 65 204 236 344 
2491 125 204 236 126 
2492 125 236 204 344 
2493 271 325 313 277 
2494 271 313 325 48 
2495 46 271 325 48 
2496 192 314 175 193 
2497 298 175 314 193 
2498 149 281 223 150 
2499 149 223 281 352 
2500 70 207 105 178 
2501 70 105 207 102 
2502 12 105 207 178 
2503 12 207 105 102 
2504 200 238 244 243 
2505 244 238 200 201 
2506 244 341 200 243 
2507 200 341 244 201 
2508 174 192 314 175 
2509 174 314 192 308 
2510 298 174 314 175 
2511 298 314 174 308 
2512 182 174 298 175 
2513 182 298 174 308 
2514 30 23 383 226 
2515 30 383 23 240 
2516 334 70 385 178 
2517 334 385 70 383 
2518 105 385 70 178 
2519 105 70 385 383 
2520 46 228 271 48 
2521 301 271 43 48 
2522 301 43 271 384 
2523 271 228 43 48 
2524 384 300 385 270 
2525 385 300 384 183 
2526 384 107 385 183 
2527 106 385 384 107 
2528 32 98 36 35 
2529 32 36 98 80 
2530 98 79 35 97 
2531 15 35 79 97 
2532 382 213 108 184 
2533 193 352 150 82 
2534 193 150 352 281 
2535 223 150 352 82 
2536 223 352 150 281 
2537 213 96 20 11 
2538 20 96 213 382 
2539 20 108 213 11 
2540 213 108 20 382 
2541 384 179 385 106 
2542 384 385 179 270 
2543 329 382 172 305 
2544 329 172 382 78 
2545 331 172 382 305 
2546 331 382 172 78 
2547 71 17 385 179 
2548 71 385 17 382 
2549 106 385 17 179 
2550 106 17 385 382 
2551 76 182 42 94 
2552 211 42 182 94 
2553 211 182 42 8 
2554 43 182 42 76 
2555 42 182 43 8 
2556 39 38 180 91 
2557 39 180 38 5 
2558 209 180 38 91 
2559 209 38 180 5 
2560 2 206 30 177 
2561 2 30 206 29 
2562 69 30 206 177 
2563 69 206 30 29 
2564 3 185 31 214 
2565 3 31 185 32 
2566 98 31 185 214 
2567 98 185 31 32 
2568 36 98 79 35 
2569 79 15 36 35 
2570 36 15 79 381 
2571 80 79 36 98 
2572 36 79 80 381 
2573 167 247 262 166 
2574 262 247 167 263 
2575 262 328 73 166 
2576 73 328 262 263 
2577 167 262 73 166 
2578 73 262 167 263 
2579 307 292 174 173 
2580 307 174 292 308 
2581 76 307 174 173 
2582 76 174 307 308 
2583 332 307 76 173 
2584 332 76 307 308 
2585 233 272 240 23 
2586 240 272 233 276 
2587 240 267 233 23 
2588 233 267 240 276 
2589 271 325 256 46 
2590 271 256 325 277 
2591 268 256 325 46 
2592 268 325 256 277 
2593 228 271 256 46 
2594 256 39 228 46 
2595 271 256 39 228 
2596 39 256 271 384 
2597 39 43 271 228 
2598 271 43 39 384 
$EndElements
